# Blender 4.0.1
# www.blender.org
mtllib armdown.mtl
o Onett11
v -0.430589 0.637761 0.095385
v -0.464609 0.605611 0.084938
v -0.459829 0.547109 0.214696
v -0.426159 0.575411 0.234567
v -0.450779 0.455112 0.337672
v -0.417779 0.475885 0.365022
v -0.452349 0.349474 0.400013
v -0.419239 0.360048 0.432099
v -0.473769 0.241626 0.405152
v -0.440379 0.241626 0.438542
v 0.484321 0.573471 0.074491
v 0.450261 0.605611 0.084938
v 0.445481 0.547109 0.214696
v 0.479181 0.518830 0.194825
v 0.436431 0.455112 0.337672
v 0.469451 0.434491 0.310322
v 0.438001 0.349474 0.400013
v 0.471151 0.338900 0.367927
v 0.459451 0.241626 0.405152
v 0.492841 0.241626 0.371761
v -0.507159 -0.470309 0.371762
v -0.473769 -0.470315 0.405152
v -0.473769 0.241626 0.405152
v -0.507159 0.241625 0.371761
v 0.492841 0.241626 0.371761
v 0.459451 0.241626 0.405152
v 0.459451 -0.470315 0.405152
v 0.492841 -0.470309 0.371762
v -0.430589 0.637761 0.095385
v -0.426159 0.575411 0.234567
v 0.411781 0.575411 0.234567
v 0.416211 0.637761 0.095385
v -0.417779 0.475885 0.365022
v 0.403401 0.475885 0.365022
v -0.419239 0.360048 0.432099
v 0.404861 0.360048 0.432099
v -0.440379 0.241626 0.438542
v -0.440379 -0.470321 0.438542
v 0.426061 -0.470321 0.438542
v 0.426061 0.241626 0.438542
v -0.440379 0.241626 0.438542
v 0.426061 0.241626 0.438542
v -0.461349 -0.543159 -0.064017
v -0.461349 -0.543020 -0.455222
v -0.398999 -0.543066 -0.454449
v -0.399779 -0.543126 -0.064009
v -0.507159 -0.470309 0.371762
v -0.507159 -0.470321 -0.064017
v -0.461349 -0.543159 -0.064017
v -0.461349 -0.543020 0.332306
v -0.507159 -0.470321 -0.064017
v -0.507159 -0.470309 -0.494677
v -0.461349 -0.543020 -0.455222
v -0.461349 -0.543159 -0.064017
v -0.507159 -0.470309 -0.494677
v -0.440379 -0.470321 -0.561458
v -0.400689 -0.543196 -0.515884
v -0.461349 -0.543020 -0.455222
v -0.440379 -0.470321 -0.561458
v 0.426061 -0.470321 -0.561458
v 0.386371 -0.543196 -0.515884
v -0.400689 -0.543196 -0.515884
v 0.426061 -0.470321 -0.561458
v 0.492841 -0.470309 -0.494677
v 0.447031 -0.543160 -0.455222
v 0.386371 -0.543196 -0.515884
v 0.492841 -0.470309 -0.494677
v 0.492841 -0.470321 -0.064017
v 0.447031 -0.543299 -0.064017
v 0.447031 -0.543160 -0.455222
v 0.492841 -0.470321 -0.064017
v 0.492841 -0.470309 0.371762
v 0.447031 -0.543160 0.332306
v 0.447031 -0.543299 -0.064017
v 0.492841 -0.470309 0.371762
v 0.459451 -0.470315 0.405152
v 0.416701 -0.543178 0.362638
v 0.447031 -0.543160 0.332306
v 0.426061 -0.470321 0.438542
v -0.440379 -0.470321 0.438542
v -0.400689 -0.543195 0.392969
v 0.386371 -0.543195 0.392969
v -0.440379 -0.470321 0.438542
v -0.473769 -0.470315 0.405152
v -0.431019 -0.543108 0.362638
v -0.400689 -0.543195 0.392969
v -0.423119 0.625931 -0.064018
v -0.433199 0.656701 -0.028165
v 0.418821 0.656701 -0.028165
v 0.405371 0.625931 -0.064018
v -0.423119 0.625931 -0.064018
v -0.470219 0.580291 -0.064017
v -0.501669 0.589291 -0.029396
v -0.467439 0.623001 -0.028780
v -0.501669 0.589291 -0.029396
v -0.470219 0.580291 -0.064017
v -0.473369 0.276672 -0.064017
v -0.507159 0.241344 -0.030227
v -0.440379 0.241320 -0.561458
v -0.425819 0.276689 -0.526511
v 0.411501 0.277034 -0.526511
v 0.426061 0.241320 -0.561458
v -0.425819 0.276689 -0.526511
v -0.440379 0.241320 -0.561458
v -0.507159 0.241321 -0.494677
v -0.470179 0.276689 -0.494677
v -0.470179 0.276689 -0.494677
v -0.507159 0.241321 -0.494677
v -0.507159 0.241344 -0.030227
v -0.473369 0.276672 -0.064017
v 0.418821 0.656701 -0.028165
v 0.453091 0.623001 -0.028780
v 0.405371 0.625931 -0.064018
v 0.455411 0.580291 -0.064017
v 0.487351 0.589291 -0.029396
v 0.492841 0.241343 -0.030227
v 0.459051 0.277013 -0.064017
v 0.492841 0.241321 -0.494677
v 0.455861 0.277034 -0.494678
v 0.459051 0.277013 -0.064017
v 0.492841 0.241343 -0.030227
v 0.455861 0.277034 -0.494678
v 0.492841 0.241321 -0.494677
v 0.426061 0.241320 -0.561458
v 0.411501 0.277034 -0.526511
v -0.498639 0.573461 0.074491
v -0.467439 0.623001 -0.028780
v -0.501669 0.589291 -0.029396
v 0.416211 0.637761 0.095385
v 0.453091 0.623001 -0.028780
v 0.418821 0.656701 -0.028165
v -0.507159 0.241321 -0.494677
v -0.440379 0.241320 -0.561458
v -0.440379 -0.470321 -0.561458
v -0.507159 -0.470309 -0.494677
v 0.492841 -0.470309 -0.494677
v 0.426061 -0.470321 -0.561458
v 0.426061 0.241320 -0.561458
v 0.492841 0.241321 -0.494677
v -0.433199 0.656701 -0.028165
v 0.418821 0.656701 -0.028165
v -0.507159 -0.470309 0.371762
v -0.507159 0.241625 0.371761
v -0.507159 0.241344 -0.030227
v -0.507159 -0.470321 -0.064017
v 0.492841 0.241626 0.371761
v 0.492841 -0.470309 0.371762
v 0.492841 -0.470321 -0.064017
v 0.492841 0.241343 -0.030227
v -0.507159 0.241321 -0.494677
v -0.507159 -0.470309 -0.494677
v -0.440379 -0.470321 -0.561458
v -0.440379 0.241320 -0.561458
v 0.426061 0.241320 -0.561458
v 0.426061 -0.470321 -0.561458
v 0.492841 -0.470309 -0.494677
v 0.492841 0.241321 -0.494677
v -0.493499 0.518830 0.194825
v -0.498639 0.573461 0.074491
v -0.507159 0.241344 -0.030227
v -0.483769 0.434491 0.310322
v -0.485469 0.338899 0.367927
v -0.507159 0.241625 0.371761
v -0.501669 0.589291 -0.029396
v 0.484321 0.573471 0.074491
v 0.479181 0.518830 0.194825
v 0.492841 0.241343 -0.030227
v 0.469451 0.434491 0.310322
v 0.471151 0.338900 0.367927
v 0.492841 0.241626 0.371761
v 0.487351 0.589291 -0.029396
v -0.425819 0.276689 -0.526511
v -0.470179 0.276689 -0.494677
v 0.455861 0.277034 -0.494678
v 0.411501 0.277034 -0.526511
v -0.470219 0.580291 -0.064017
v -0.423119 0.625931 -0.064018
v 0.405371 0.625931 -0.064018
v 0.455411 0.580291 -0.064017
v -0.473369 0.276672 -0.064017
v 0.459051 0.277013 -0.064017
v -0.473369 0.276672 -0.064017
v 0.459051 0.277013 -0.064017
v 0.386371 -0.543196 -0.063999
v 0.386371 -0.543196 -0.444707
v 0.447031 -0.543160 -0.455222
v 0.447031 -0.543299 -0.064017
v -0.400689 -0.543196 -0.515884
v -0.398999 -0.543066 -0.454449
v -0.461349 -0.543020 -0.455222
v 0.447031 -0.543160 -0.455222
v 0.386371 -0.543196 -0.444707
v 0.386371 -0.543196 -0.515884
v 0.386371 -0.543196 -0.444707
v -0.398999 -0.543066 -0.454449
v -0.400689 -0.543196 -0.515884
v 0.386371 -0.543196 -0.515884
v -0.399779 -0.543126 -0.064009
v -0.398999 -0.543066 -0.454449
v 0.386371 -0.543196 -0.444707
v 0.386371 -0.543196 -0.063999
v 0.386371 -0.543195 0.334098
v 0.447031 -0.543160 0.332306
v 0.416701 -0.543178 0.362638
v -0.400689 -0.543195 0.392969
v -0.400569 -0.543187 0.333983
v 0.386371 -0.543195 0.334098
v 0.386371 -0.543195 0.392969
v -0.400569 -0.543187 0.333983
v -0.400689 -0.543195 0.392969
v -0.431019 -0.543108 0.362638
v 0.447031 -0.543299 -0.064017
v 0.447031 -0.543160 0.332306
v 0.386371 -0.543195 0.334098
v 0.386371 -0.543196 -0.063999
v 0.386371 -0.543196 -0.063999
v 0.386371 -0.543195 0.334098
v -0.400569 -0.543187 0.333983
v -0.399779 -0.543126 -0.064009
v -0.399779 -0.543126 -0.064009
v -0.400569 -0.543187 0.333983
v -0.461349 -0.543020 0.332306
v -0.461349 -0.543159 -0.064017
v 0.411781 0.575411 0.234567
v 0.403401 0.475885 0.365022
v 0.404861 0.360048 0.432099
v 0.426061 0.241626 0.438542
v 0.459451 0.241626 0.405152
v 0.426061 0.241626 0.438542
v 0.426061 -0.470321 0.438542
v 0.459451 -0.470315 0.405152
v 0.459451 -0.470315 0.405152
v 0.426061 -0.470321 0.438542
v 0.386371 -0.543195 0.392969
v 0.416701 -0.543178 0.362638
v 0.487351 0.589291 -0.029396
v 0.386371 -0.543195 0.392969
v 0.453091 0.623001 -0.028780
v 0.487351 0.589291 -0.029396
v 0.455411 0.580291 -0.064017
v 0.405371 0.625931 -0.064018
v -0.493499 0.518830 0.194825
v -0.483769 0.434491 0.310322
v -0.485469 0.338899 0.367927
v -0.507159 0.241625 0.371761
v -0.440379 -0.470321 0.438542
v -0.440379 0.241626 0.438542
v -0.507159 -0.470309 0.371762
v -0.461349 -0.543020 0.332306
v -0.433199 0.656701 -0.028165
v -0.461349 -0.543020 0.332306
v -0.467439 0.623001 -0.028780
v -0.433199 0.656701 -0.028165
v -0.423119 0.625931 -0.064018
vn -0.7103 0.6709 0.2131
vn -0.7095 0.5675 0.4178
vn -0.7094 0.5676 0.4178
vn -0.7095 0.5676 0.4178
vn -0.7094 0.4178 0.5676
vn -0.7095 0.4178 0.5676
vn -0.7061 0.2589 0.6591
vn -0.7061 0.2589 0.6590
vn -0.7073 0.1022 0.6995
vn -0.6910 0.1099 0.7145
vn 0.7103 0.6708 0.2131
vn 0.7103 0.6709 0.2131
vn 0.7095 0.5676 0.4178
vn 0.7094 0.5676 0.4178
vn 0.7095 0.4178 0.5676
vn 0.7061 0.2589 0.6591
vn 0.7095 0.4178 0.5675
vn 0.7061 0.2589 0.6590
vn 0.7022 0.2604 0.6627
vn 0.7073 0.1022 0.6995
vn 0.7222 0.1099 0.6829
vn -0.6951 -0.0079 0.7188
vn -0.7071 -0.0000 0.7071
vn -0.6942 0.1183 0.7100
vn 0.7071 -0.0000 0.7071
vn 0.7226 -0.0079 0.6912
vn -0.0000 0.9518 0.3068
vn -0.0000 0.8084 0.5886
vn -0.0000 0.5887 0.8084
vn -0.0000 0.3068 0.9518
vn 0.0158 0.0948 0.9954
vn 0.0157 -0.0079 0.9998
vn 0.0393 -0.0079 0.9992
vn 0.0395 0.0948 0.9947
vn 0.0395 0.0947 0.9947
vn 0.0157 -0.9999 -0.0000
vn 0.0157 -0.9998 -0.0079
vn 0.0158 -0.9998 -0.0079
vn -0.8381 -0.5455 0.0079
vn -0.8381 -0.5455 -0.0000
vn -0.8345 -0.5511 -0.0000
vn -0.8344 -0.5510 0.0079
vn -0.8381 -0.5455 -0.0079
vn -0.8344 -0.5510 -0.0079
vn -0.5278 -0.6460 -0.5515
vn 0.0157 -0.5271 -0.8497
vn 0.0393 -0.5268 -0.8491
vn 0.0394 -0.5359 -0.8433
vn 0.0394 -0.5360 -0.8433
vn 0.0158 -0.5363 -0.8439
vn 0.5683 -0.6236 -0.5368
vn 0.5655 -0.6284 -0.5341
vn 0.5656 -0.6284 -0.5341
vn 0.8554 -0.5180 -0.0078
vn 0.8554 -0.5179 -0.0000
vn 0.8533 -0.5215 -0.0000
vn 0.8533 -0.5214 -0.0000
vn 0.8533 -0.5214 -0.0079
vn 0.8554 -0.5180 -0.0000
vn 0.8554 -0.5180 0.0078
vn 0.8533 -0.5214 0.0079
vn 0.5683 -0.6236 0.5368
vn 0.5441 -0.6387 0.5441
vn 0.5655 -0.6284 0.5341
vn 0.0393 -0.5268 0.8491
vn 0.0157 -0.5271 0.8497
vn 0.0158 -0.5363 0.8439
vn 0.0394 -0.5359 0.8433
vn -0.5278 -0.6460 0.5514
vn -0.5440 -0.6388 0.5440
vn -0.5278 -0.6460 0.5515
vn -0.0000 0.7565 -0.6540
vn 0.0157 0.7707 -0.6370
vn 0.0393 0.7702 -0.6366
vn -0.5444 0.5524 -0.6313
vn -0.7340 0.0237 -0.6787
vn -0.7340 0.0237 -0.6788
vn -0.7258 0.0473 -0.6863
vn 0.0157 0.7070 -0.7070
vn -0.0000 0.7032 -0.7110
vn -0.0000 0.7031 -0.7110
vn 0.0395 0.7026 -0.7105
vn -0.5059 0.6482 -0.5691
vn -0.4807 0.6619 -0.5752
vn -0.4867 0.6594 -0.5730
vn -0.7071 0.7071 -0.0000
vn -0.6911 0.7226 -0.0157
vn -0.6912 0.7227 -0.0000
vn -0.6912 0.7226 -0.0000
vn 0.5500 0.5500 -0.6286
vn 0.5297 0.5376 -0.6561
vn 0.7301 0.0236 -0.6830
vn 0.7486 0.0394 -0.6619
vn 0.7301 0.0235 -0.6830
vn 0.7188 0.6951 -0.0158
vn 0.7071 0.7071 -0.0000
vn 0.7189 0.6951 -0.0000
vn 0.5059 0.6482 -0.5691
vn 0.5282 0.6385 -0.5597
vn -0.7067 0.6989 0.1099
vn 0.7067 0.6989 0.1099
vn 0.7073 0.6995 0.1022
vn -0.6951 0.0158 -0.7188
vn -0.6911 0.0157 -0.7226
vn -0.6912 -0.0079 -0.7226
vn -0.6951 -0.0079 -0.7188
vn 0.7226 -0.0078 -0.6912
vn 0.7188 -0.0079 -0.6951
vn 0.7188 0.0158 -0.6951
vn 0.7225 0.0157 -0.6912
vn 0.0158 0.7707 -0.6370
vn 0.0394 0.7702 -0.6366
vn -0.9999 -0.0079 0.0079
vn -0.9969 0.0785 0.0079
vn -0.9995 0.0315 0.0079
vn -1.0000 -0.0079 -0.0000
vn 0.9975 0.0707 0.0078
vn 0.9999 -0.0079 0.0079
vn 1.0000 -0.0079 -0.0000
vn 0.9975 0.0707 0.0079
vn 0.9995 0.0315 0.0079
vn -0.9998 0.0157 -0.0079
vn -0.9999 -0.0079 -0.0079
vn 0.0157 -0.0079 -0.9998
vn 0.0157 0.0157 -0.9998
vn 0.0393 0.0157 -0.9991
vn 0.0393 -0.0079 -0.9992
vn 0.9999 -0.0079 -0.0079
vn 0.9998 0.0157 -0.0079
vn -0.9992 0.0315 0.0236
vn -0.9992 0.0393 0.0079
vn -0.9992 0.0236 0.0315
vn -0.9974 0.0707 0.0157
vn -0.9995 0.0315 0.0078
vn 0.9992 0.0393 0.0079
vn 0.9992 0.0315 0.0236
vn 0.9992 0.0236 0.0315
vn 0.9974 0.0707 0.0157
vn -0.0000 1.0000 -0.0000
vn -0.0000 -0.0000 -1.0000
vn 0.0393 -0.9992 -0.0000
vn 0.0393 -0.9992 -0.0079
vn 0.0394 -0.9992 -0.0079
vn 0.0158 -0.9999 -0.0000
vn 0.0394 -0.9992 -0.0000
vn 0.0393 -0.9992 0.0079
vn 0.0158 -0.9998 0.0079
vn 0.0157 -0.9998 0.0079
vn 0.0157 -0.9999 -0.0002
vn 0.7094 0.4178 0.5676
vn 0.7184 0.1105 0.6868
vn 0.7188 -0.0079 0.6952
vn 0.5656 -0.6284 0.5341
vn 0.7067 0.6989 0.1100
vn 0.5282 0.5597 -0.6385
vn 0.5297 0.5375 -0.6561
vn 0.5282 0.5597 -0.6386
vn -0.7103 0.6708 0.2131
vn -0.7095 0.4178 0.5675
vn -0.6912 -0.0079 0.7226
vn -0.6909 0.1099 0.7145
vn -0.5441 -0.6387 0.5441
vn -0.6829 0.7222 0.1099
vn -0.7067 0.6989 0.1100
vn -0.5445 0.5523 -0.6313
vn -0.5263 0.5813 -0.6206
vt 0.912621 0.866324
vt 0.911807 0.867174
vt 0.920385 0.867562
vt 0.921218 0.866791
vt 0.928049 0.868746
vt 0.929133 0.868141
vt 0.931390 0.870831
vt 0.933228 0.870357
vt 0.931726 0.872979
vt 0.933653 0.872979
vt 0.765818 0.868344
vt 0.764694 0.867486
vt 0.758155 0.868181
vt 0.759459 0.868921
vt 0.752509 0.869257
vt 0.754913 0.870001
vt 0.749379 0.870866
vt 0.751829 0.871134
vt 0.747140 0.872977
vt 0.749670 0.872977
vt 0.929799 0.830149
vt 0.931726 0.830149
vt 0.931726 0.873303
vt 0.929799 0.873303
vt 0.746118 0.873303
vt 0.744378 0.873303
vt 0.744378 0.830149
vt 0.746118 0.830149
vt 0.931727 0.866816
vt 0.931726 0.867797
vt 0.994291 0.867820
vt 0.994291 0.866839
vt 0.931726 0.869169
vt 0.994291 0.869192
vt 0.931726 0.871081
vt 0.994291 0.871075
vt 0.933653 0.873303
vt 0.933653 0.830149
vt 0.992045 0.830149
vt 0.992045 0.873303
vt 0.931726 0.873325
vt 0.994289 0.873325
vt 0.810432 0.806542
vt 0.810432 0.819812
vt 0.808361 0.819812
vt 0.808361 0.806657
vt 0.900404 0.830149
vt 0.900404 0.826301
vt 0.929799 0.826301
vt 0.871331 0.830149
vt 0.871331 0.826301
vt 0.867323 0.830149
vt 0.867323 0.826301
vt 0.808813 0.830149
vt 0.808813 0.826301
vt 0.808889 0.830149
vt 0.804792 0.830149
vt 0.804792 0.826301
vt 0.808889 0.826301
vt 0.772861 0.830149
vt 0.772861 0.826301
vt 0.746118 0.826301
vt 0.744378 0.826301
vt 0.933653 0.826301
vt 0.992045 0.826301
vt 0.931726 0.826301
vt 0.938768 0.871979
vt 0.994289 0.873303
vt 0.987327 0.871979
vt 0.771998 0.821329
vt 0.773576 0.819806
vt 0.775326 0.820964
vt 0.775346 0.821553
vt 0.773652 0.806309
vt 0.775065 0.806309
vt 0.772568 0.791159
vt 0.771873 0.792786
vt 0.747419 0.792786
vt 0.746492 0.791159
vt 0.771895 0.792784
vt 0.775094 0.791159
vt 0.773576 0.794048
vt 0.994289 0.871978
vt 0.745724 0.819803
vt 0.744279 0.820782
vt 0.744279 0.806308
vt 0.745741 0.806309
vt 0.744279 0.791159
vt 0.745728 0.794048
vt 0.910673 0.868314
vt 0.905420 0.867255
vt 0.904986 0.868428
vt 0.763338 0.866596
vt 0.771377 0.867806
vt 0.771377 0.866670
vt 0.871331 0.873303
vt 0.867323 0.873303
vt 0.808889 0.873304
vt 0.804792 0.873304
vt 0.931726 0.866325
vt 0.994289 0.866325
vt 0.903699 0.873303
vt 0.771650 0.873304
vt 0.808813 0.873303
vt 0.919408 0.868300
vt 0.903699 0.872979
vt 0.926607 0.869583
vt 0.929599 0.871135
vt 0.929799 0.872979
vt 0.771650 0.872979
vt 0.771377 0.868881
vt 0.747325 0.792784
vt 0.747550 0.821329
vt 0.745728 0.819806
vt 0.773576 0.806309
vt 0.781598 0.806824
vt 0.781598 0.819812
vt 0.779590 0.819812
vt 0.779590 0.806542
vt 0.808361 0.822014
vt 0.781598 0.822014
vt 0.781598 0.793244
vt 0.779590 0.793308
vt 0.780594 0.792223
vt 0.808361 0.791138
vt 0.808361 0.793248
vt 0.781598 0.791138
vt 0.809397 0.792223
vt 0.810432 0.793308
vt 0.756619 0.867411
vt 0.750569 0.868670
vt 0.746930 0.870287
vt 0.744378 0.872979
vt 0.994289 0.830149
vt 0.994289 0.826301
vt 0.744279 0.821462
vt 0.905728 0.866336
vt 0.931726 0.871978
s 0
usemtl Handle1Mtl.003
f 1/1/1 2/2/1 3/3/2
f 1/1/1 3/3/3 4/4/3
f 4/4/4 3/3/4 5/5/5
f 4/4/4 5/5/6 6/6/6
f 6/6/6 5/5/6 7/7/7
f 6/6/6 7/7/7 8/8/7
f 8/8/7 7/7/8 9/9/9
f 8/8/8 9/9/9 10/10/10
f 11/11/11 12/12/12 13/13/13
f 11/11/12 13/13/13 14/14/14
f 14/14/14 13/13/14 15/15/15
f 14/14/13 15/15/15 16/16/15
f 16/16/15 15/15/15 17/17/16
f 16/16/17 17/17/18 18/18/19
f 18/18/19 17/17/16 19/19/20
f 18/18/19 19/19/20 20/20/21
f 21/21/22 22/22/23 23/23/9
f 21/21/22 23/23/9 24/24/24
f 25/25/21 26/26/20 27/27/25
f 25/25/21 27/27/25 28/28/26
f 29/29/27 30/30/28 31/31/28
f 29/29/27 31/31/28 32/32/27
f 30/30/28 33/33/29 34/34/29
f 30/30/28 34/34/29 31/31/28
f 33/33/29 35/35/30 36/36/30
f 33/33/29 36/36/30 34/34/29
f 37/37/31 38/38/32 39/39/33
f 37/37/31 39/39/33 40/40/34
f 35/35/30 41/41/31 42/42/35
f 35/35/30 42/42/35 36/36/30
f 43/43/36 44/44/37 45/45/37
f 43/43/36 45/45/38 46/46/36
f 47/21/39 48/47/40 49/48/41
f 47/21/39 49/48/41 50/49/42
f 51/47/40 52/50/43 53/51/44
f 51/47/40 53/51/44 54/48/41
f 55/50/45 56/52/45 57/53/45
f 55/50/45 57/53/45 58/51/45
f 59/52/46 60/54/47 61/55/48
f 59/52/46 61/55/49 62/53/50
f 63/56/51 64/57/51 65/58/52
f 63/56/51 65/58/53 66/59/53
f 67/57/54 68/60/55 69/61/56
f 67/57/54 69/61/57 70/58/58
f 71/60/59 72/28/60 73/62/61
f 71/60/55 73/62/61 74/61/57
f 75/28/62 76/27/63 77/63/64
f 75/28/62 77/63/64 78/62/64
f 79/39/65 80/38/66 81/64/67
f 79/39/65 81/64/67 82/65/68
f 83/38/69 84/22/70 85/66/69
f 83/38/71 85/66/71 86/64/71
f 87/67/72 88/23/73 89/68/74
f 87/67/72 89/68/74 90/69/72
f 91/70/75 92/71/75 93/72/75
f 91/70/75 93/72/75 94/73/75
f 95/72/76 96/71/76 97/74/76
f 95/72/76 97/74/77 98/75/78
f 99/76/79 100/77/80 101/78/80
f 99/76/79 101/78/81 102/79/82
f 103/80/83 104/76/84 105/81/85
f 103/80/83 105/81/85 106/82/83
f 107/82/86 108/81/87 109/75/88
f 107/82/86 109/75/89 110/74/86
f 111/68/90 112/83/91 113/69/91
f 114/84/92 115/85/92 116/86/93
f 114/84/94 116/86/93 117/87/94
f 118/88/95 119/89/96 120/87/96
f 118/88/95 120/87/96 121/86/97
f 122/89/98 123/88/99 124/79/99
f 122/89/98 124/79/99 125/78/98
f 126/90/1 2/2/1 127/91/100
f 126/90/1 127/91/100 128/92/100
f 129/93/12 12/12/12 130/94/101
f 129/93/12 130/94/101 131/95/102
f 132/96/103 133/97/104 134/52/105
f 132/96/103 134/52/105 135/50/106
f 136/57/107 137/56/108 138/98/109
f 136/57/107 138/98/109 139/99/110
f 140/100/111 29/29/27 32/32/27
f 140/100/111 32/32/27 141/101/112
f 142/21/113 143/24/114 144/102/115
f 142/21/113 144/102/115 145/47/116
f 146/25/117 147/28/118 148/60/119
f 146/25/120 148/60/119 149/103/121
f 150/96/122 151/50/123 145/47/116
f 150/96/122 145/47/116 144/102/115
f 152/52/124 153/97/125 154/104/126
f 152/52/124 154/104/126 155/54/127
f 156/57/128 157/99/129 149/103/121
f 156/57/128 149/103/121 148/60/119
f 158/105/130 159/90/131 160/106/115
f 161/107/132 158/105/130 160/106/115
f 162/108/133 161/107/132 160/106/115
f 163/109/114 162/108/133 160/106/115
f 159/90/131 164/92/131 160/106/134
f 165/11/135 166/14/136 167/110/121
f 166/14/136 168/16/137 167/110/121
f 168/16/137 169/18/138 167/110/121
f 169/18/138 170/20/117 167/110/121
f 171/111/135 165/11/135 167/110/121
f 172/80/139 173/82/139 174/89/139
f 172/80/139 174/89/139 175/112/139
f 176/71/140 177/70/72 178/113/72
f 176/71/140 178/113/72 179/114/140
f 174/89/139 180/115/139 181/87/139
f 182/115/140 179/114/140 183/87/140
f 184/116/141 185/117/142 186/118/142
f 184/116/141 186/118/143 187/119/141
f 188/120/38 189/45/38 190/44/38
f 191/118/142 192/117/142 193/121/142
f 194/117/143 195/45/37 196/120/37
f 194/117/142 196/120/37 197/121/142
f 198/46/144 199/45/38 200/117/142
f 198/46/36 200/117/142 201/116/145
f 202/122/146 203/123/146 204/124/146
f 205/125/147 206/126/147 207/122/146
f 205/125/148 207/122/146 208/127/146
f 209/126/148 210/125/148 211/128/148
f 173/82/139 180/115/139 174/89/139
f 182/115/140 176/71/140 179/114/140
f 212/119/141 213/123/146 214/122/146
f 212/119/141 214/122/146 215/116/141
f 216/116/141 217/122/146 218/126/148
f 216/116/145 218/126/148 219/46/149
f 220/46/144 221/126/148 222/129/148
f 220/46/36 222/129/147 223/43/36
f 12/12/12 129/93/12 224/130/13
f 12/12/11 224/130/13 13/13/14
f 13/13/13 224/130/13 225/131/150
f 13/13/13 225/131/15 15/15/15
f 15/15/15 225/131/15 226/132/16
f 15/15/15 226/132/16 17/17/16
f 17/17/18 226/132/18 227/133/151
f 17/17/18 227/133/151 19/19/20
f 228/68/20 229/40/151 230/39/152
f 228/68/20 230/39/152 231/134/25
f 232/134/63 233/39/62 234/65/64
f 232/134/63 234/65/153 235/135/153
f 12/12/11 11/11/11 236/111/101
f 12/12/12 236/111/154 130/94/154
f 204/124/146 237/127/146 202/122/146
f 238/136/91 239/85/155 240/84/155
f 238/136/156 240/84/157 241/113/156
f 2/2/1 126/90/158 242/105/3
f 2/2/158 242/105/2 3/3/2
f 3/3/4 242/105/4 243/107/6
f 3/3/4 243/107/159 5/5/159
f 5/5/6 243/107/6 244/108/8
f 5/5/6 244/108/8 7/7/8
f 7/7/7 244/108/7 245/109/24
f 7/7/7 245/109/24 9/9/9
f 22/22/23 246/38/160 247/37/161
f 22/22/23 247/37/161 23/23/9
f 84/22/162 248/21/71 249/49/71
f 84/22/162 249/49/71 85/66/71
f 2/2/1 1/1/1 250/137/163
f 2/2/1 250/137/163 127/91/164
f 211/128/148 251/129/148 209/126/148
f 252/138/165 253/23/166 254/67/165
