# Blender 4.0.1
# www.blender.org
mtllib body.mtl
o Onett9
v 0.921818 0.732179 0.488852
v 0.921818 -0.732310 0.488852
v 0.921817 -0.732311 -0.409404
v 0.921818 0.732178 -0.409404
v -1.078180 0.732178 -0.409404
v -1.078182 -0.732348 -0.409404
v -1.078182 -0.732347 0.488852
v -1.078181 0.732179 0.488852
v 0.891204 -0.732312 -0.435651
v 0.860593 -0.732312 -0.461897
v 0.860647 0.732178 -0.461897
v 0.891233 0.732178 -0.435651
v 0.860593 -0.732312 -0.461897
v -1.016954 -0.732347 -0.461897
v -1.016954 0.732178 -0.461898
v 0.860647 0.732178 -0.461897
v -1.078182 -0.732348 -0.409404
v -1.078180 0.732178 -0.409404
v -1.016954 0.732178 -0.461898
v -1.016954 -0.732347 -0.461897
v 0.858164 -0.799887 -0.395355
v 0.860593 -0.732312 -0.461897
v 0.891204 -0.732312 -0.435651
v -1.016954 -0.732347 -0.461897
v 0.860593 -0.732312 -0.461897
v 0.858164 -0.799887 -0.395355
v -1.018430 -0.799922 -0.395355
v 0.860594 -0.732311 0.538099
v 0.858165 -0.799887 0.470208
v 0.921818 -0.732310 0.488852
v -1.018430 -0.799921 0.470208
v 0.858165 -0.799887 0.470208
v 0.860594 -0.732311 0.538099
v -1.016954 -0.732346 0.538102
v -1.078182 -0.732347 0.488852
v -1.078182 -0.732348 -0.409404
v -1.018430 -0.799922 -0.395355
v -1.018430 -0.799921 0.470208
v 0.858165 -0.799887 0.470208
v 0.858164 -0.799887 -0.395355
v 0.921817 -0.732311 -0.409404
v 0.921818 -0.732310 0.488852
v -0.079794 -0.799664 0.036051
v -1.018430 -0.799922 -0.395355
v 0.858164 -0.799887 -0.395355
v -1.018430 -0.799922 -0.395355
v -1.078182 -0.732348 -0.409404
v -1.016954 -0.732347 -0.461897
v -1.016954 -0.732346 0.538102
v -1.078182 -0.732347 0.488852
v -1.018430 -0.799921 0.470208
v 0.858165 -0.799887 0.470208
v -0.079794 -0.799664 0.036051
v 0.858164 -0.799887 -0.395355
v -0.079794 -0.799664 0.036051
v 0.858165 -0.799887 0.470208
v -1.018430 -0.799921 0.470208
v -1.018430 -0.799922 -0.395355
v -0.079794 -0.799664 0.036051
v -1.018430 -0.799921 0.470208
v 0.860647 0.732178 -0.461897
v 0.858219 0.800078 -0.395355
v 0.891233 0.732178 -0.435651
v 0.858219 0.800078 -0.395355
v 0.860647 0.732178 -0.461897
v -1.016954 0.732178 -0.461898
v -1.018431 0.800078 -0.395355
v 0.921818 0.732179 0.488852
v 0.858220 0.800079 0.470208
v 0.860647 0.732179 0.538099
v 0.858219 0.800078 -0.395355
v 0.858220 0.800079 0.470208
v 0.921818 0.732179 0.488852
v 0.921818 0.732178 -0.409404
v 0.858220 0.800079 0.470208
v -0.079767 0.800078 0.036051
v -1.018431 0.800079 0.470208
v -1.016954 0.732178 -0.461898
v -1.078180 0.732178 -0.409404
v -1.018431 0.800078 -0.395355
v 0.860594 -0.732311 0.538099
v 0.921818 -0.732310 0.488852
v 0.921818 0.732179 0.488852
v 0.860647 0.732179 0.538099
v -1.016954 0.732179 0.538102
v -1.016954 -0.732346 0.538102
v 0.860594 -0.732311 0.538099
v 0.860647 0.732179 0.538099
v -1.078182 -0.732347 0.488852
v -1.016954 -0.732346 0.538102
v -1.016954 0.732179 0.538102
v -1.078181 0.732179 0.488852
v -1.018431 0.800079 0.470208
v -1.078181 0.732179 0.488852
v -1.016954 0.732179 0.538102
v -1.018431 0.800079 0.470208
v -1.016954 0.732179 0.538102
v 0.860647 0.732179 0.538099
v 0.858220 0.800079 0.470208
v -1.078180 0.732178 -0.409404
v -1.078181 0.732179 0.488852
v -1.018431 0.800079 0.470208
v -1.018431 0.800078 -0.395355
v -0.079767 0.800078 0.036051
v -1.018431 0.800078 -0.395355
v -1.018431 0.800079 0.470208
v -0.079767 0.800078 0.036051
v 0.858220 0.800079 0.470208
v 0.858219 0.800078 -0.395355
v -1.018431 0.800078 -0.395355
v -0.079767 0.800078 0.036051
v 0.858219 0.800078 -0.395355
v 0.858219 0.800078 -0.395355
v 0.921818 0.732178 -0.409404
v 0.891233 0.732178 -0.435651
v 0.891233 0.732178 -0.435651
v 0.921818 0.732178 -0.409404
v 0.921817 -0.732311 -0.409404
v 0.891204 -0.732312 -0.435651
v 0.891204 -0.732312 -0.435651
v 0.921817 -0.732311 -0.409404
v 0.858164 -0.799887 -0.395355
vn 1.0000 -0.0000 -0.0000
vn -1.0000 -0.0000 -0.0000
vn 0.6540 -0.0000 -0.7565
vn -0.0000 -0.0000 -1.0000
vn -0.6541 -0.0000 -0.7564
vn -0.6540 -0.0000 -0.7565
vn 0.5125 -0.6150 -0.5992
vn -0.0000 -0.7031 -0.7111
vn 0.4875 -0.6291 0.6055
vn -0.0000 -0.7071 0.7071
vn -0.7491 -0.6624 -0.0000
vn 0.7265 -0.6871 -0.0000
vn 0.7266 -0.6871 -0.0000
vn -0.0000 -1.0000 0.0001
vn -0.5265 -0.5893 -0.6129
vn -0.4983 -0.6091 0.6170
vn 0.0001 -1.0000 -0.0000
vn -0.0000 -1.0000 -0.0001
vn -0.0002 -1.0000 -0.0000
vn 0.5208 0.6076 -0.5997
vn -0.0000 0.6992 -0.7149
vn -0.0000 0.6991 -0.7150
vn 0.4899 0.6244 0.6084
vn 0.7302 0.6833 -0.0000
vn -0.0000 1.0000 -0.0000
vn -0.5265 0.5893 -0.6128
vn 0.6285 -0.0000 0.7778
vn -0.0000 -0.0000 1.0000
vn -0.6285 -0.0000 0.7778
vn -0.4959 0.6061 0.6218
vn -0.0000 0.7071 0.7071
vn -0.0000 0.7071 0.7072
vn -0.7491 0.6624 -0.0000
vt 0.317527 0.922850
vt 0.317527 0.838723
vt 0.374101 0.838723
vt 0.374101 0.922850
vt 0.129467 0.922850
vt 0.129467 0.838723
vt 0.187063 0.838723
vt 0.187063 0.922850
vt 0.002199 0.838723
vt 0.004750 0.838723
vt 0.004750 0.922850
vt 0.002199 0.922850
vt 0.124434 0.838723
vt 0.124434 0.922850
vt 0.002199 0.833959
vt 0.127010 0.833959
vt 0.311883 0.838723
vt 0.314425 0.833959
vt 0.189550 0.833959
vt 0.192249 0.838723
vt 0.376799 0.833959
vt 0.161784 0.946866
vt 0.193183 0.962651
vt 0.131134 0.962654
vt 0.187060 0.838723
vt 0.131135 0.931881
vt 0.193183 0.931877
vt 0.002199 0.927561
vt 0.127010 0.927561
vt 0.314425 0.927463
vt 0.311883 0.922850
vt 0.376799 0.927463
vt 0.002238 0.990028
vt 0.064200 0.959406
vt 0.126685 0.990028
vt 0.192249 0.922850
vt 0.187060 0.922850
vt 0.189656 0.927475
vt 0.314425 0.927475
vt 0.189656 0.927503
vt 0.127010 0.927503
vt 0.126685 0.928065
vt 0.002239 0.928065
vt 0.376799 0.927561
vt 0.376799 0.922850
vt 0.376799 0.838723
s 0
usemtl Handle1Mtl.003
f 1/1/1 2/2/1 3/3/1
f 1/1/1 3/3/1 4/4/1
f 5/5/2 6/6/2 7/7/2
f 5/5/2 7/7/2 8/8/2
f 9/9/3 10/10/3 11/11/3
f 9/9/3 11/11/3 12/12/3
f 13/10/4 14/13/4 15/14/4
f 13/10/4 15/14/4 16/11/4
f 17/6/5 18/5/5 19/14/5
f 17/6/6 19/14/6 20/13/6
f 21/15/7 22/10/7 23/9/7
f 24/13/8 25/10/8 26/15/8
f 24/13/8 26/15/8 27/16/8
f 28/17/9 29/18/9 30/2/9
f 31/19/10 32/18/10 33/17/10
f 31/19/10 33/17/10 34/20/10
f 35/7/11 36/6/11 37/16/11
f 35/7/11 37/16/11 38/19/11
f 39/18/12 40/21/12 41/3/12
f 39/18/13 41/3/13 42/2/13
f 43/22/14 44/23/14 45/24/14
f 46/16/15 47/6/15 48/13/15
f 49/20/16 50/25/16 51/19/16
f 52/26/17 53/22/17 54/24/17
f 55/22/18 56/26/18 57/27/18
f 58/23/19 59/22/19 60/27/19
f 61/11/20 62/28/20 63/12/20
f 64/28/21 65/11/21 66/14/21
f 64/28/22 66/14/22 67/29/22
f 68/1/23 69/30/23 70/31/23
f 71/32/24 72/30/24 73/1/24
f 71/32/24 73/1/24 74/4/24
f 75/33/25 76/34/25 77/35/25
f 78/14/26 79/5/26 80/29/26
f 81/17/27 82/2/27 83/1/27
f 81/17/27 83/1/27 84/31/27
f 85/36/28 86/20/28 87/17/28
f 85/36/28 87/17/28 88/31/28
f 89/25/29 90/20/29 91/36/29
f 89/25/29 91/36/29 92/37/29
f 93/38/30 94/37/30 95/36/30
f 96/38/31 97/36/31 98/31/31
f 96/38/32 98/31/32 99/39/32
f 100/5/33 101/8/33 102/40/33
f 100/5/33 102/40/33 103/41/33
f 104/34/25 105/42/25 106/35/25
f 107/34/25 108/33/25 109/43/25
f 110/42/25 111/34/25 112/43/25
f 113/44/20 114/4/20 115/45/20
f 116/45/3 117/4/3 118/3/3
f 116/45/3 118/3/3 119/46/3
f 120/46/7 121/3/7 122/21/7
