# Blender 4.0.1
# www.blender.org
mtllib foot.mtl
o Onett5
v 0.446142 -0.137156 0.372796
v 0.510435 -0.137156 0.372796
v 0.478289 -0.137156 0.398089
v -0.458367 -0.137156 0.398749
v -0.427968 -0.137156 0.423375
v -0.427969 0.052534 0.423375
v -0.458367 0.052534 0.398749
v 0.510434 0.052534 -0.524133
v 0.510434 -0.137156 -0.524133
v 0.446141 -0.137156 -0.576619
v 0.446141 0.052534 -0.576619
v -0.427969 -0.137156 -0.576619
v -0.427969 -0.137156 -0.525554
v -0.489565 -0.137156 -0.524115
v -0.427969 0.052534 0.423375
v -0.427968 -0.137156 0.423375
v 0.446142 -0.137156 0.423381
v 0.446142 0.052534 0.423381
v -0.427969 0.052534 -0.576619
v -0.427969 -0.137156 -0.576619
v -0.489565 -0.137156 -0.524115
v -0.489565 0.052534 -0.524116
v -0.427963 0.112324 -0.525543
v -0.427969 0.052534 -0.576619
v -0.489565 0.052534 -0.524116
v -0.427963 0.112324 0.372761
v -0.427969 0.052534 0.423375
v 0.446142 0.052534 0.423381
v 0.446149 0.112394 0.372753
v 0.446141 -0.137156 -0.576619
v 0.446141 -0.137156 -0.525554
v 0.446141 0.052534 -0.576619
v 0.446141 -0.137156 -0.576619
v -0.427969 -0.137156 -0.576619
v -0.427969 0.052534 -0.576619
v 0.446142 0.052534 0.423381
v 0.446142 -0.137156 0.423381
v 0.478289 -0.137156 0.398089
v 0.478288 0.052534 0.398089
v 0.510434 -0.137156 -0.524133
v 0.510434 -0.137156 -0.524133
v 0.510434 0.052534 -0.524133
v 0.510435 0.052534 0.372796
v 0.510435 -0.137156 0.372796
v -0.427963 0.112324 -0.525543
v -0.489565 0.052534 -0.524116
v -0.488765 0.052534 0.374123
v -0.427963 0.112324 0.372761
v 0.446218 0.112444 -0.525543
v 0.510434 0.052534 -0.524133
v 0.446141 0.052534 -0.576619
v -0.489565 -0.137156 -0.524115
v -0.427969 -0.137156 0.372796
v -0.488765 -0.137156 0.374123
v -0.427963 0.112324 -0.525543
v 0.446218 0.112444 -0.525543
v 0.446141 0.052534 -0.576619
v -0.427969 0.052534 -0.576619
v -0.488765 -0.137156 0.374123
v -0.488765 0.052534 0.374123
v -0.489565 0.052534 -0.524116
v -0.489565 -0.137156 -0.524115
v 0.446149 0.112394 0.372753
v 0.510435 0.052534 0.372796
v 0.510434 0.052534 -0.524133
v 0.446218 0.112444 -0.525543
v 0.446149 0.112394 0.372753
v 0.446142 0.052534 0.423381
v 0.478288 0.052534 0.398089
v -0.427963 0.112324 0.372761
v -0.458367 0.052534 0.398749
v -0.427969 0.052534 0.423375
v -0.427968 -0.137156 0.423375
v -0.458367 -0.137156 0.398749
v -0.488765 -0.137156 0.374123
v 0.446142 -0.137156 0.423381
v 0.017278 0.162284 -0.078629
v 0.304750 0.162844 0.241400
v 0.304750 0.162844 -0.397527
v -0.427963 0.112324 0.372761
v -0.270193 0.162844 0.241400
v -0.270193 0.162844 -0.397527
v -0.427963 0.112324 -0.525543
v 0.446149 0.112394 0.372753
v 0.446218 0.112444 -0.525543
v 0.478289 -0.137156 0.398089
v 0.510435 -0.137156 0.372796
v 0.510435 0.052534 0.372796
v 0.478288 0.052534 0.398089
v 0.478288 0.052534 0.398089
v 0.510435 0.052534 0.372796
v 0.446149 0.112394 0.372753
v -0.427963 0.112324 0.372761
v -0.488765 0.052534 0.374123
v -0.458367 0.052534 0.398749
v -0.458367 0.052534 0.398749
v -0.488765 0.052534 0.374123
v -0.488765 -0.137156 0.374123
v -0.458367 -0.137156 0.398749
vn 0.0707 -0.9972 0.0236
vn 0.0707 -0.9972 0.0235
vn -0.6285 -0.0000 0.7778
vn -0.5127 0.5364 0.6704
vn 0.5486 0.5251 -0.6506
vn 0.5509 0.5194 -0.6532
vn 0.5487 0.5251 -0.6506
vn 0.5487 0.5251 -0.6505
vn 0.0707 -0.9972 -0.0235
vn 0.0707 -0.9972 -0.0236
vn 0.0236 0.5270 0.8495
vn -0.5297 0.5376 -0.6561
vn -0.5269 0.5348 -0.6606
vn -0.5296 0.5376 -0.6561
vn -0.5125 0.6150 -0.5992
vn -0.3296 0.8475 -0.4160
vn -0.0000 0.7110 0.7032
vn 0.0158 0.8846 0.4660
vn -0.0000 0.7111 0.7031
vn 0.0236 0.5270 -0.8495
vn 0.5348 0.5269 0.6606
vn 0.5370 0.5212 0.6633
vn 0.6199 -0.0000 0.7847
vn 0.8533 0.5214 -0.0079
vn 0.8497 0.5272 -0.0079
vn 0.8497 0.5272 0.0078
vn 0.8497 0.5272 0.0079
vn 0.8533 0.5214 0.0079
vn -0.6324 0.7747 -0.0000
vn -0.3930 0.9195 -0.0078
vn -0.3930 0.9195 0.0079
vn 0.4959 0.6219 -0.6061
vn 0.3538 0.8412 -0.4088
vn 0.3526 0.8385 -0.4153
vn -0.0000 0.7149 -0.6992
vn 0.0158 0.8846 -0.4660
vn -0.8404 0.5420 0.0007
vn -0.8381 0.5455 0.0079
vn -0.8381 0.5455 -0.0079
vn -0.8404 0.5419 0.0079
vn -0.8404 0.5419 -0.0078
vn 0.6150 0.7885 -0.0000
vn 0.4090 0.9125 0.0079
vn 0.4090 0.9125 -0.0079
vn 0.4090 0.9125 -0.0051
vn 0.4816 0.6237 0.6158
vn 0.3388 0.8431 0.4176
vn 0.4816 0.6237 0.6157
vn -0.4959 0.6219 0.6061
vn -0.3155 0.8519 0.4180
vn 0.0157 0.9999 -0.0000
vn 0.0157 0.9998 0.0079
vn 0.0157 0.9998 -0.0079
vn -0.3068 0.9518 -0.0000
vn -0.1733 0.9848 0.0079
vn -0.1733 0.9848 -0.0079
vn -0.3067 0.9518 -0.0000
vn -0.0000 0.9327 0.3606
vn -0.0000 0.9327 0.3605
vn -0.0000 0.9290 -0.3700
vn 0.0158 0.9998 -0.0079
vn 0.0158 0.9998 -0.0078
vn 0.0158 0.9998 0.0079
vn 0.0158 0.9999 -0.0000
vn 0.5347 0.5269 0.6606
vn -0.3155 0.8519 0.4181
vn -0.6286 -0.0000 0.7778
vt 0.939260 0.450555
vt 0.935601 0.450555
vt 0.937430 0.449026
vt 0.744350 0.474851
vt 0.746078 0.474851
vt 0.746078 0.488091
vt 0.744350 0.488091
vt 0.804964 0.507537
vt 0.804964 0.494338
vt 0.808520 0.494338
vt 0.808520 0.507537
vt 0.994327 0.509663
vt 0.994327 0.506577
vt 0.997832 0.506490
vt 0.804842 0.474851
vt 0.804842 0.488091
vt 0.867331 0.507537
vt 0.867331 0.494338
vt 0.871006 0.494338
vt 0.871006 0.507537
vt 0.869228 0.509666
vt 0.744351 0.490222
vt 0.806384 0.490222
vt 0.939260 0.509663
vt 0.939260 0.506577
vt 0.806398 0.474851
vt 0.806398 0.488091
vt 0.935601 0.506491
vt 0.745805 0.507537
vt 0.745805 0.494338
vt 0.929886 0.507537
vt 0.931506 0.509666
vt 0.806715 0.509666
vt 0.994327 0.450555
vt 0.997787 0.450475
vt 0.929886 0.494338
vt 0.744257 0.509666
vt 0.994327 0.447498
vt 0.996057 0.448987
vt 0.939260 0.447498
vt 0.915547 0.474502
vt 0.904967 0.485687
vt 0.904967 0.463494
vt 0.931571 0.490076
vt 0.926671 0.485687
vt 0.926671 0.463494
vt 0.931571 0.459180
vt 0.900575 0.490076
vt 0.900573 0.459180
vt 0.744257 0.494338
vt 0.744257 0.507537
vt 0.744257 0.509668
vt 0.931506 0.509675
vt 0.931506 0.507537
vt 0.931506 0.494338
s 0
usemtl Handle1Mtl.003
f 1/1/1 2/2/2 3/3/1
f 4/4/3 5/5/4 6/6/4
f 4/4/3 6/6/4 7/7/3
f 8/8/5 9/9/6 10/10/6
f 8/8/7 10/10/6 11/11/8
f 12/12/9 13/13/10 14/14/10
f 15/6/11 16/5/11 17/15/11
f 15/6/11 17/15/11 18/16/11
f 19/17/12 20/18/13 21/19/13
f 19/17/14 21/19/13 22/20/14
f 23/21/15 24/17/16 25/20/16
f 26/22/17 27/6/18 28/16/18
f 26/22/19 28/16/18 29/23/19
f 30/24/10 31/25/10 13/13/10
f 30/24/10 13/13/10 12/12/9
f 32/11/20 33/10/20 34/18/20
f 32/11/20 34/18/20 35/17/20
f 36/16/21 37/15/22 38/26/23
f 36/16/21 38/26/23 39/27/23
f 40/28/9 31/25/10 30/24/10
f 41/9/24 42/8/25 43/29/26
f 41/9/24 43/29/27 44/30/28
f 45/21/29 46/20/30 47/31/31
f 45/21/29 47/31/31 48/32/29
f 49/33/32 50/8/33 51/11/34
f 52/14/9 13/13/10 53/34/1
f 52/14/10 53/34/2 54/35/2
f 13/13/9 31/25/10 1/1/1
f 13/13/10 1/1/1 53/34/2
f 55/21/35 56/33/35 57/11/36
f 55/21/35 57/11/36 58/17/36
f 2/2/2 1/1/2 31/25/9
f 2/2/2 31/25/9 40/28/10
f 59/36/37 60/31/38 61/20/39
f 59/36/40 61/20/39 62/19/41
f 63/37/42 64/29/43 65/8/44
f 63/37/42 65/8/45 66/33/42
f 67/23/46 68/16/47 69/27/48
f 70/22/49 71/7/49 72/6/50
f 53/34/1 73/38/2 74/39/2
f 53/34/1 74/39/2 75/35/1
f 53/34/2 1/1/1 76/40/2
f 53/34/1 76/40/1 73/38/2
f 77/41/51 78/42/52 79/43/53
f 80/44/54 81/45/55 82/46/56
f 80/44/57 82/46/56 83/47/57
f 84/48/58 78/42/52 81/45/55
f 84/48/59 81/45/55 80/44/54
f 79/43/53 85/49/60 83/47/54
f 79/43/53 83/47/54 82/46/56
f 84/48/59 85/49/60 79/43/61
f 84/48/59 79/43/62 78/42/63
f 82/46/56 77/41/51 79/43/53
f 77/41/64 82/46/56 81/45/55
f 78/42/52 77/41/64 81/45/55
f 86/50/23 87/30/22 88/29/21
f 86/50/23 88/29/65 89/51/23
f 3/3/2 76/40/1 1/1/1
f 90/51/46 91/29/47 92/52/48
f 93/53/49 94/31/66 95/54/49
f 96/54/3 97/31/4 98/36/4
f 96/54/67 98/36/4 99/55/67
