# Blender 4.0.1
# www.blender.org
mtllib legdown.mtl
o Onett4
v -0.429771 0.802954 0.145186
v -0.462403 0.771174 0.134743
v -0.462403 0.700031 0.264496
v -0.429771 0.726674 0.284363
v -0.495036 0.739378 0.124299
v -0.462403 0.771174 0.134743
v -0.462404 0.796742 -0.014203
v -0.495036 0.762944 -0.014200
v -0.462403 0.594002 0.367472
v -0.429771 0.613728 0.394819
v -0.462403 0.463989 0.433658
v -0.429771 0.474569 0.465741
v -0.472983 0.306099 0.454967
v -0.439594 0.308869 0.488354
v -0.429771 0.490872 -0.475908
v -0.462403 0.480299 -0.443823
v -0.462403 0.593985 -0.390728
v -0.429771 0.613679 -0.418078
v -0.495036 0.469729 -0.411738
v -0.462403 0.480299 -0.443823
v -0.472983 0.306019 -0.478180
v -0.506373 0.303249 -0.444792
v -0.462404 0.694703 -0.280559
v -0.429771 0.721331 -0.300430
v -0.462404 0.764388 -0.160593
v -0.429771 0.796173 -0.171041
v -0.462404 0.796742 -0.014203
v -0.429771 0.830539 -0.014205
v 0.417025 0.802954 0.145186
v 0.449657 0.771174 0.134742
v 0.449657 0.796742 -0.014203
v 0.417025 0.830540 -0.014206
v 0.482289 0.739379 0.124299
v 0.449657 0.771174 0.134742
v 0.449657 0.700031 0.264495
v 0.482289 0.673198 0.244628
v 0.449657 0.594002 0.367472
v 0.482289 0.574342 0.340126
v 0.449657 0.463989 0.433658
v 0.482290 0.453419 0.401575
v 0.460237 0.306099 0.454967
v 0.493627 0.303329 0.421579
v 0.417025 0.490873 -0.475908
v 0.449657 0.480299 -0.443824
v 0.460237 0.306019 -0.478180
v 0.426848 0.308789 -0.511568
v 0.482289 0.469729 -0.411739
v 0.449657 0.480299 -0.443824
v 0.449657 0.593986 -0.390728
v 0.482289 0.574349 -0.363379
v 0.449657 0.694704 -0.280559
v 0.482289 0.667877 -0.260687
v 0.449657 0.764388 -0.160593
v 0.482289 0.732586 -0.150144
v 0.449657 0.796742 -0.014203
v 0.482289 0.762944 -0.014200
v -0.506373 -0.591251 0.421657
v -0.472983 -0.594021 0.455045
v -0.472983 0.306099 0.454967
v -0.506372 0.303329 0.421580
v 0.493627 0.303329 0.421579
v 0.460237 0.306099 0.454967
v 0.460238 -0.594021 0.455045
v 0.493627 -0.591251 0.421656
v -0.472983 -0.594101 -0.478101
v -0.506373 -0.591321 -0.444715
v 0.493627 -0.591321 -0.444715
v 0.460237 -0.594101 -0.478101
v 0.460237 0.306019 -0.478180
v 0.493627 0.303249 -0.444792
v -0.429771 0.802954 0.145186
v -0.429771 0.726674 0.284363
v 0.417025 0.726675 0.284363
v 0.417025 0.802954 0.145186
v -0.429771 0.613728 0.394819
v 0.417025 0.613729 0.394818
v -0.429771 0.474569 0.465741
v 0.417025 0.474569 0.465741
v -0.429771 0.490872 -0.475908
v -0.429771 0.613679 -0.418078
v 0.417025 0.613680 -0.418078
v 0.417025 0.490873 -0.475908
v -0.429771 0.721331 -0.300430
v 0.417024 0.721331 -0.300431
v -0.429771 0.796173 -0.171041
v 0.417024 0.796173 -0.171042
v -0.429771 0.830539 -0.014205
v 0.417025 0.830540 -0.014206
v -0.429771 0.830539 -0.014205
v 0.417025 0.830540 -0.014206
v -0.506373 -0.591251 0.421657
v -0.506372 0.303329 0.421580
v -0.506373 0.308999 -0.014165
v -0.506373 -0.596831 -0.014087
v -0.439594 0.308869 0.488354
v -0.439594 -0.596781 0.488432
v 0.426848 -0.596781 0.488432
v 0.426848 0.308869 0.488354
v 0.493627 0.303329 0.421579
v 0.493627 -0.591251 0.421656
v 0.493627 -0.596831 -0.014087
v 0.493627 0.308999 -0.014165
v -0.506373 0.303249 -0.444792
v -0.506373 -0.591321 -0.444715
v -0.506373 -0.596831 -0.014087
v -0.439594 -0.596871 -0.511490
v -0.439594 0.308789 -0.511568
v 0.426848 0.308789 -0.511568
v 0.426848 -0.596871 -0.511490
v 0.493627 -0.591321 -0.444715
v 0.493627 0.303249 -0.444792
v 0.493627 -0.596831 -0.014087
v 0.426848 0.308869 0.488354
v -0.495036 0.673198 0.244629
v -0.495036 0.739378 0.124299
v -0.495036 0.574341 0.340126
v -0.495035 0.453419 0.401575
v -0.495036 0.469729 -0.411738
v -0.495036 0.574349 -0.363379
v -0.495036 0.667877 -0.260687
v -0.495036 0.732585 -0.150144
v -0.495036 0.762944 -0.014200
v 0.482289 0.739379 0.124299
v 0.482289 0.673198 0.244628
v 0.493627 0.308999 -0.014165
v 0.482289 0.574342 0.340126
v 0.482290 0.453419 0.401575
v 0.493627 0.303249 -0.444792
v 0.482289 0.469729 -0.411739
v 0.482289 0.574349 -0.363379
v 0.482289 0.667877 -0.260687
v 0.482289 0.732586 -0.150144
v 0.482289 0.762944 -0.014200
v 0.387158 -0.669391 0.384088
v -0.398799 -0.664731 0.382347
v -0.399826 -0.669131 -0.406141
v -0.506373 -0.591251 0.421657
v -0.506373 -0.596831 -0.014087
v -0.460565 -0.669421 -0.014081
v -0.460565 -0.664361 0.382212
v -0.506373 -0.596831 -0.014087
v -0.506373 -0.591321 -0.444715
v -0.460565 -0.664421 -0.405257
v -0.460565 -0.669421 -0.014081
v -0.506373 -0.591321 -0.444715
v -0.472983 -0.594101 -0.478101
v -0.430234 -0.666941 -0.435585
v -0.460565 -0.664421 -0.405257
v -0.439594 -0.596871 -0.511490
v 0.426848 -0.596871 -0.511490
v 0.387158 -0.669461 -0.465914
v -0.399904 -0.669461 -0.465914
v 0.426848 -0.596871 -0.511490
v 0.460237 -0.594101 -0.478101
v 0.417489 -0.666941 -0.435585
v 0.387158 -0.669461 -0.465914
v 0.493627 -0.591321 -0.444715
v 0.493627 -0.596831 -0.014087
v 0.447819 -0.669421 -0.014081
v 0.447819 -0.664421 -0.405257
v 0.493627 -0.596831 -0.014087
v 0.493627 -0.591251 0.421656
v 0.447819 -0.664361 0.382210
v 0.447819 -0.669421 -0.014081
v 0.493627 -0.591251 0.421656
v 0.460238 -0.594021 0.455045
v 0.417489 -0.666871 0.412539
v 0.447819 -0.664361 0.382210
v 0.426848 -0.596781 0.488432
v -0.439594 -0.596781 0.488432
v -0.399904 -0.669391 0.442869
v 0.387158 -0.669391 0.442869
v -0.439594 -0.596781 0.488432
v -0.472983 -0.594021 0.455045
v -0.430234 -0.666871 0.412540
v -0.399904 -0.669391 0.442869
v 0.447819 -0.669421 -0.014081
v 0.387158 -0.669391 0.384088
v 0.387158 -0.669461 -0.406204
v -0.398799 -0.664731 0.382347
v 0.387158 -0.669391 0.384088
v 0.387158 -0.669391 0.442869
v -0.399904 -0.669391 0.442869
v 0.387158 -0.669391 0.384088
v 0.417489 -0.666871 0.412539
v 0.387158 -0.669391 0.442869
v -0.460565 -0.664361 0.382212
v -0.460565 -0.669421 -0.014081
v -0.398799 -0.664731 0.382347
v -0.460565 -0.664361 0.382212
v -0.398799 -0.664731 0.382347
v -0.430234 -0.666871 0.412540
v 0.387158 -0.669461 -0.406204
v 0.417489 -0.666941 -0.435585
v 0.447819 -0.664421 -0.405257
v -0.399904 -0.669461 -0.465914
v 0.387158 -0.669461 -0.465914
v 0.387158 -0.669461 -0.406204
v -0.399826 -0.669131 -0.406141
v -0.399826 -0.669131 -0.406141
v -0.430234 -0.666941 -0.435585
v -0.399904 -0.669461 -0.465914
v 0.447819 -0.669421 -0.014081
v 0.447819 -0.664361 0.382210
v 0.387158 -0.669391 0.384088
v 0.447819 -0.664421 -0.405257
v 0.447819 -0.669421 -0.014081
v 0.387158 -0.669461 -0.406204
v -0.460565 -0.669421 -0.014081
v -0.460565 -0.664421 -0.405257
v -0.399826 -0.669131 -0.406141
v -0.460565 -0.669421 -0.014081
v -0.399826 -0.669131 -0.406141
v -0.398799 -0.664731 0.382347
v 0.387158 -0.669461 -0.406204
v 0.387158 -0.669391 0.384088
v -0.399826 -0.669131 -0.406141
v -0.462403 0.700031 0.264496
v -0.495036 0.673198 0.244629
v -0.462404 0.796742 -0.014203
v -0.429771 0.830539 -0.014205
v -0.462403 0.594002 0.367472
v -0.495036 0.574341 0.340126
v -0.462403 0.463989 0.433658
v -0.495035 0.453419 0.401575
v -0.472983 0.306099 0.454967
v -0.506372 0.303329 0.421580
v -0.462403 0.593985 -0.390728
v -0.495036 0.574349 -0.363379
v -0.472983 0.306019 -0.478180
v -0.439594 0.308789 -0.511568
v -0.462404 0.694703 -0.280559
v -0.495036 0.667877 -0.260687
v -0.462404 0.764388 -0.160593
v -0.495036 0.732585 -0.150144
v -0.462404 0.796742 -0.014203
v -0.495036 0.762944 -0.014200
v -0.472983 0.306099 0.454967
v -0.472983 -0.594021 0.455045
v -0.439594 -0.596781 0.488432
v -0.472983 -0.594101 -0.478101
v -0.439594 -0.596871 -0.511490
v -0.430234 -0.666941 -0.435585
v -0.472983 -0.594101 -0.478101
v -0.439594 -0.596871 -0.511490
v -0.399904 -0.669461 -0.465914
v -0.430234 -0.666871 0.412540
v -0.472983 -0.594021 0.455045
v -0.506373 -0.591251 0.421657
v -0.460565 -0.664361 0.382212
v -0.430234 -0.666871 0.412540
v -0.398799 -0.664731 0.382347
v -0.399904 -0.669391 0.442869
v -0.430234 -0.666941 -0.435585
v -0.399826 -0.669131 -0.406141
v -0.460565 -0.664421 -0.405257
v 0.449657 0.796742 -0.014203
v 0.482289 0.762944 -0.014200
v 0.449657 0.700031 0.264495
v 0.417025 0.726675 0.284363
v 0.449657 0.594002 0.367472
v 0.417025 0.613729 0.394818
v 0.449657 0.463989 0.433658
v 0.417025 0.474569 0.465741
v 0.460237 0.306099 0.454967
v 0.426848 0.308869 0.488354
v 0.449657 0.593986 -0.390728
v 0.417025 0.613680 -0.418078
v 0.449657 0.694704 -0.280559
v 0.417024 0.721331 -0.300431
v 0.449657 0.764388 -0.160593
v 0.417024 0.796173 -0.171042
v 0.449657 0.796742 -0.014203
v 0.417025 0.830540 -0.014206
v 0.460238 -0.594021 0.455045
v 0.460237 0.306099 0.454967
v 0.426848 0.308869 0.488354
v 0.426848 -0.596781 0.488432
v 0.460237 -0.594101 -0.478101
v 0.426848 -0.596871 -0.511490
v 0.417489 -0.666941 -0.435585
v 0.460237 -0.594101 -0.478101
v 0.493627 -0.591321 -0.444715
v 0.447819 -0.664421 -0.405257
v 0.417489 -0.666871 0.412539
v 0.460238 -0.594021 0.455045
v 0.426848 -0.596781 0.488432
v 0.387158 -0.669391 0.442869
v 0.417489 -0.666941 -0.435585
v 0.387158 -0.669461 -0.406204
v 0.387158 -0.669461 -0.465914
v 0.417489 -0.666871 0.412539
v 0.387158 -0.669391 0.384088
v 0.447819 -0.664361 0.382210
vn -0.7108 0.6160 0.3396
vn -0.7139 0.6903 0.1177
vn -0.7138 0.6904 0.1177
vn -0.7106 0.4896 0.5053
vn -0.7106 0.4895 0.5053
vn -0.7167 0.3150 0.6222
vn -0.7078 0.1416 0.6921
vn -0.7166 0.2992 -0.6300
vn -0.7166 0.2993 -0.6300
vn -0.7110 0.1817 -0.6794
vn -0.7109 0.1817 -0.6794
vn -0.7103 0.5209 -0.4735
vn -0.7103 0.6077 -0.3552
vn -0.7103 0.6077 -0.3551
vn -0.7147 0.6833 -0.1493
vn -0.7147 0.6833 -0.1492
vn 0.7139 0.6903 0.1177
vn 0.7139 0.6903 0.1176
vn 0.7108 0.6160 0.3396
vn 0.7106 0.4896 0.5053
vn 0.7106 0.4895 0.5053
vn 0.7167 0.3150 0.6222
vn 0.7117 0.1423 0.6879
vn 0.7117 0.1423 0.6880
vn 0.7081 0.1731 -0.6845
vn 0.7147 0.2906 -0.6362
vn 0.7103 0.5209 -0.4735
vn 0.7103 0.6077 -0.3551
vn 0.7103 0.6077 -0.3552
vn 0.7147 0.6833 -0.1493
vn 0.7147 0.6833 -0.1492
vn -0.7071 0.0001 0.7071
vn 0.7071 0.0001 0.7071
vn -0.7071 -0.0001 -0.7071
vn -0.7110 0.1817 -0.6793
vn 0.7071 -0.0001 -0.7071
vn -0.0000 0.8764 0.4816
vn -0.0000 0.6992 0.7149
vn -0.0000 0.4566 0.8897
vn -0.0000 0.4250 -0.9052
vn -0.0000 0.4251 -0.9052
vn -0.0000 0.7378 -0.6751
vn -0.0000 0.7378 -0.6750
vn -0.0000 0.8643 -0.5029
vn -0.0000 0.8644 -0.5029
vn -0.0000 0.9771 -0.2127
vn -0.0000 0.9771 -0.2128
vn -1.0000 -0.0000 -0.0000
vn -0.0000 0.0001 1.0000
vn 1.0000 -0.0000 -0.0000
vn -0.0000 -0.0001 -1.0000
vn -0.0000 0.4566 0.8896
vn -0.0000 -0.0000 1.0000
vn -0.0000 -0.0000 -1.0000
vn -0.9996 0.0236 0.0157
vn -0.9998 0.0157 0.0157
vn -0.9997 0.0079 0.0236
vn -0.9998 0.0158 0.0157
vn -0.9975 0.0707 -0.0000
vn -0.9997 0.0079 -0.0236
vn -0.9998 0.0157 -0.0157
vn -0.9996 0.0236 -0.0157
vn -0.9998 0.0158 -0.0157
vn -0.9997 0.0236 -0.0078
vn -0.9997 0.0236 -0.0079
vn 0.9996 0.0236 0.0157
vn 0.9998 0.0157 0.0157
vn 0.9998 0.0158 0.0157
vn 0.9997 0.0079 0.0236
vn 0.9975 0.0707 -0.0000
vn 0.9997 0.0079 -0.0236
vn 0.9998 0.0157 -0.0157
vn 0.9998 0.0158 -0.0157
vn 0.9996 0.0236 -0.0158
vn 0.9996 0.0236 -0.0157
vn 0.9997 0.0236 -0.0078
vn 0.9997 0.0236 -0.0079
vn -0.0079 -0.9999 0.0079
vn -0.8439 -0.5364 0.0079
vn -0.8440 -0.5363 0.0079
vn -0.8440 -0.5364 -0.0079
vn -0.8440 -0.5363 -0.0079
vn -0.5674 -0.6383 -0.5201
vn -0.5674 -0.6384 -0.5201
vn -0.0000 -0.5328 -0.8462
vn 0.5674 -0.6384 -0.5201
vn 0.8439 -0.5364 -0.0079
vn 0.8440 -0.5364 -0.0079
vn 0.8440 -0.5364 0.0079
vn 0.8440 -0.5363 0.0079
vn 0.5674 -0.6384 0.5202
vn 0.5674 -0.6384 0.5201
vn 0.5674 -0.6383 0.5201
vn -0.0000 -0.5329 0.8462
vn -0.0000 -0.5328 0.8462
vn -0.5674 -0.6384 0.5201
vn -0.5674 -0.6384 0.5202
vn 0.0001 -1.0000 0.0001
vn -0.0000 -0.9992 -0.0393
vn 0.0785 -0.9969 -0.0000
vn -0.0079 -0.9998 0.0157
vn -0.0079 -0.9969 -0.0785
vn -0.0000 -1.0000 -0.0000
vn -0.0785 -0.9969 0.0079
vn 0.0863 -0.9961 0.0157
vn 0.0863 -0.9961 -0.0157
vn -0.0785 -0.9968 -0.0157
vn 0.0394 -0.9992 0.0078
vn -0.7139 0.6903 0.1176
vn -0.7106 0.4897 0.5052
vn -0.7107 0.4895 0.5053
vn -0.7167 0.3151 0.6222
vn -0.7071 -0.0000 0.7071
vn -0.7147 0.2906 -0.6362
vn -0.7081 0.1731 -0.6845
vn -0.7103 0.5208 -0.4735
vn 0.7167 0.3151 0.6222
vn 0.7078 0.1416 0.6921
vn 0.7071 -0.0000 -0.7071
vn 0.7166 0.2993 -0.6300
vn 0.7103 0.5208 -0.4735
vn 0.7103 0.6078 -0.3551
vn 0.7138 0.6903 0.1177
vt 0.933590 0.581148
vt 0.931733 0.581148
vt 0.931733 0.584933
vt 0.933590 0.584932
vt 0.929844 0.581166
vt 0.931681 0.581166
vt 0.931681 0.576840
vt 0.929844 0.576841
vt 0.931733 0.588730
vt 0.933590 0.588730
vt 0.931731 0.591921
vt 0.933590 0.591920
vt 0.931731 0.596043
vt 0.933589 0.596044
vt 0.867278 0.591387
vt 0.869152 0.591387
vt 0.869167 0.587302
vt 0.867276 0.587302
vt 0.871024 0.591387
vt 0.869155 0.596099
vt 0.871029 0.596099
vt 0.869167 0.583200
vt 0.867281 0.583200
vt 0.869170 0.579434
vt 0.867284 0.579434
vt 0.869136 0.576574
vt 0.867252 0.576574
vt 0.992028 0.581148
vt 0.993898 0.581148
vt 0.993898 0.576822
vt 0.992028 0.576822
vt 0.744604 0.581203
vt 0.746632 0.581203
vt 0.746539 0.584988
vt 0.744604 0.584988
vt 0.746539 0.588785
vt 0.744604 0.588785
vt 0.746539 0.591976
vt 0.744605 0.591976
vt 0.746539 0.596101
vt 0.744605 0.596101
vt 0.808770 0.591387
vt 0.806632 0.591387
vt 0.806657 0.596099
vt 0.808760 0.596099
vt 0.804689 0.591387
vt 0.806632 0.587302
vt 0.804689 0.587302
vt 0.806632 0.583200
vt 0.804689 0.583200
vt 0.806632 0.579434
vt 0.804689 0.579434
vt 0.806641 0.576574
vt 0.804614 0.576574
vt 0.929844 0.553020
vt 0.931737 0.553050
vt 0.931737 0.596070
vt 0.929844 0.596040
vt 0.746567 0.596044
vt 0.744635 0.596044
vt 0.744633 0.553025
vt 0.746567 0.553025
vt 0.869172 0.553080
vt 0.871029 0.553080
vt 0.804642 0.553080
vt 0.806657 0.553080
vt 0.804642 0.596099
vt 0.992028 0.584932
vt 0.992028 0.588730
vt 0.992028 0.591920
vt 0.808770 0.587302
vt 0.808770 0.583200
vt 0.808770 0.579434
vt 0.808755 0.576574
vt 0.933588 0.576822
vt 0.900641 0.596099
vt 0.900641 0.553080
vt 0.933588 0.553025
vt 0.992028 0.553025
vt 0.992028 0.596044
vt 0.746563 0.596099
vt 0.746563 0.553080
vt 0.776316 0.553080
vt 0.776316 0.596099
vt 0.871032 0.596099
vt 0.871032 0.553080
vt 0.867267 0.553080
vt 0.867281 0.596099
vt 0.808760 0.553080
vt 0.804603 0.553080
vt 0.804603 0.596099
vt 0.992028 0.596046
vt 0.917925 0.587074
vt 0.909740 0.585689
vt 0.924442 0.589246
vt 0.928661 0.591997
vt 0.872019 0.592256
vt 0.874690 0.589431
vt 0.881517 0.587186
vt 0.890149 0.585736
vt 0.900611 0.585222
vt 0.766669 0.585881
vt 0.758440 0.587428
vt 0.751910 0.589836
vt 0.747708 0.592878
vt 0.804265 0.592825
vt 0.801197 0.589830
vt 0.794359 0.587458
vt 0.785742 0.585935
vt 0.776313 0.585410
vt 0.781510 0.515728
vt 0.808263 0.515788
vt 0.808298 0.542872
vt 0.900641 0.549331
vt 0.929844 0.549331
vt 0.871024 0.549331
vt 0.869136 0.549331
vt 0.871020 0.549331
vt 0.808755 0.549331
vt 0.867252 0.549331
vt 0.806641 0.549331
vt 0.776316 0.549331
vt 0.804576 0.549331
vt 0.746610 0.549331
vt 0.744633 0.549278
vt 0.746616 0.549276
vt 0.933588 0.549277
vt 0.992028 0.549276
vt 0.931733 0.552995
vt 0.931732 0.549277
vt 0.779445 0.529405
vt 0.781510 0.542874
vt 0.781510 0.513709
vt 0.808300 0.513709
vt 0.780477 0.514751
vt 0.810365 0.515792
vt 0.810365 0.529405
vt 0.809333 0.514751
vt 0.780477 0.543884
vt 0.779445 0.542842
vt 0.808300 0.544925
vt 0.781510 0.544925
vt 0.809333 0.543884
vt 0.779445 0.515792
vt 0.810365 0.542842
vt 0.931681 0.584951
vt 0.929844 0.584951
vt 0.931734 0.576822
vt 0.931681 0.588748
vt 0.929844 0.588748
vt 0.931681 0.591939
vt 0.929844 0.591939
vt 0.931681 0.596007
vt 0.929844 0.596010
vt 0.871024 0.587302
vt 0.871024 0.583200
vt 0.871024 0.579434
vt 0.871020 0.576574
vt 0.931769 0.549331
vt 0.746725 0.576877
vt 0.744604 0.576877
vt 0.993898 0.584933
vt 0.993898 0.588730
vt 0.993899 0.591921
vt 0.993899 0.596046
vt 0.993898 0.553025
vt 0.993899 0.596044
vt 0.804614 0.549331
vt 0.993898 0.549278
s 0
usemtl Handle1Mtl.003
f 1/1/1 2/2/1 3/3/1
f 1/1/1 3/3/1 4/4/1
f 5/5/2 6/6/2 7/7/2
f 5/5/3 7/7/3 8/8/3
f 4/4/1 3/3/1 9/9/4
f 4/4/1 9/9/5 10/10/5
f 10/10/5 9/9/5 11/11/6
f 10/10/5 11/11/6 12/12/6
f 12/12/6 11/11/6 13/13/7
f 12/12/6 13/13/7 14/14/7
f 15/15/8 16/16/8 17/17/8
f 15/15/8 17/17/9 18/18/9
f 19/19/10 20/16/10 21/20/11
f 19/19/10 21/20/10 22/21/10
f 18/18/9 17/17/9 23/22/12
f 18/18/9 23/22/12 24/23/12
f 24/23/12 23/22/12 25/24/13
f 24/23/12 25/24/13 26/25/13
f 26/25/14 25/24/14 27/26/15
f 26/25/13 27/26/16 28/27/16
f 29/28/17 30/29/17 31/30/17
f 29/28/18 31/30/18 32/31/18
f 33/32/19 34/33/19 35/34/19
f 33/32/19 35/34/19 36/35/19
f 36/35/19 35/34/19 37/36/20
f 36/35/19 37/36/20 38/37/20
f 38/37/21 37/36/21 39/38/22
f 38/37/21 39/38/22 40/39/22
f 40/39/22 39/38/22 41/40/23
f 40/39/22 41/40/24 42/41/24
f 43/42/25 44/43/25 45/44/25
f 43/42/25 45/44/25 46/45/25
f 47/46/26 48/43/26 49/47/26
f 47/46/26 49/47/26 50/48/26
f 50/48/26 49/47/26 51/49/27
f 50/48/26 51/49/27 52/50/27
f 52/50/27 51/49/27 53/51/28
f 52/50/27 53/51/29 54/52/29
f 54/52/29 53/51/29 55/53/30
f 54/52/29 55/53/31 56/54/31
f 57/55/32 58/56/32 59/57/32
f 57/55/32 59/57/32 60/58/32
f 61/59/23 62/60/23 63/61/33
f 61/59/23 63/61/33 64/62/33
f 22/21/10 21/20/11 65/63/34
f 22/21/35 65/63/34 66/64/34
f 67/65/36 68/66/36 69/44/36
f 67/65/36 69/44/36 70/67/36
f 71/1/37 72/4/37 73/68/37
f 71/1/37 73/68/37 74/28/37
f 72/4/37 75/10/38 76/69/38
f 72/4/37 76/69/38 73/68/37
f 75/10/38 77/12/39 78/70/39
f 75/10/38 78/70/39 76/69/38
f 79/15/40 80/18/40 81/71/40
f 79/15/41 81/71/41 82/42/41
f 80/18/40 83/23/42 84/72/42
f 80/18/40 84/72/42 81/71/40
f 83/23/43 85/25/44 86/73/44
f 83/23/43 86/73/44 84/72/43
f 85/25/45 87/27/46 88/74/46
f 85/25/45 88/74/46 86/73/45
f 89/75/47 71/1/37 74/28/37
f 89/75/46 74/28/37 90/31/46
f 91/55/48 92/58/48 93/76/48
f 91/55/48 93/76/48 94/77/48
f 95/14/49 96/78/49 97/79/49
f 95/14/49 97/79/49 98/80/49
f 99/81/50 100/82/50 101/83/50
f 99/81/50 101/83/50 102/84/50
f 103/85/48 104/86/48 105/77/48
f 103/85/48 105/77/48 93/76/48
f 106/87/51 107/88/51 108/45/51
f 106/87/51 108/45/51 109/89/51
f 110/90/50 111/91/50 102/84/50
f 110/90/50 102/84/50 112/83/50
f 77/12/52 95/14/53 113/92/53
f 77/12/52 113/92/53 78/70/52
f 107/88/54 79/15/40 82/42/40
f 107/88/54 82/42/40 108/45/54
f 114/93/55 115/94/55 93/76/48
f 116/95/56 114/93/55 93/76/48
f 117/96/57 116/95/58 93/76/48
f 92/58/48 117/96/57 93/76/48
f 118/97/59 103/85/48 93/76/48
f 119/98/60 118/97/59 93/76/48
f 120/99/61 119/98/60 93/76/48
f 121/100/62 120/99/63 93/76/48
f 122/101/64 121/100/62 93/76/48
f 115/94/55 122/101/65 93/76/48
f 123/102/66 124/103/66 125/84/50
f 124/103/66 126/104/67 125/84/50
f 126/104/68 127/105/69 125/84/50
f 127/105/69 99/81/50 125/84/50
f 128/91/50 129/106/70 102/84/50
f 129/106/70 130/107/71 102/84/50
f 130/107/71 131/108/72 102/84/50
f 131/108/73 132/109/74 102/84/50
f 132/109/75 133/110/76 102/84/50
f 133/110/77 123/102/66 125/84/50
f 134/111/78 135/112/78 136/113/78
f 137/55/79 138/77/79 139/114/79
f 137/55/80 139/114/80 140/115/80
f 141/77/81 142/86/81 143/116/81
f 141/77/82 143/116/82 144/114/82
f 145/64/83 146/63/83 147/117/83
f 145/64/84 147/117/84 148/118/84
f 149/87/85 150/89/85 151/119/85
f 149/87/85 151/119/85 152/120/85
f 153/89/86 154/66/86 155/121/86
f 153/89/86 155/121/86 156/119/86
f 157/90/87 158/83/87 159/122/87
f 157/90/88 159/122/88 160/123/88
f 161/83/89 162/82/89 163/124/89
f 161/83/90 163/124/90 164/122/90
f 165/62/91 166/61/91 167/125/91
f 165/62/92 167/125/93 168/126/93
f 169/79/94 170/78/94 171/127/94
f 169/79/95 171/127/95 172/128/95
f 173/78/96 174/129/96 175/130/96
f 173/78/97 175/130/97 176/127/97
f 177/131/98 178/111/98 179/132/98
f 180/112/99 181/111/99 182/133/99
f 180/112/99 182/133/99 183/134/99
f 184/111/100 185/135/100 186/133/100
f 187/136/101 188/137/101 189/112/101
f 190/136/102 191/112/102 192/138/102
f 193/132/100 194/139/100 195/140/100
f 196/141/103 197/142/103 198/132/103
f 196/141/103 198/132/103 199/113/103
f 200/113/104 201/143/104 202/141/104
f 203/131/105 204/144/105 205/111/105
f 206/140/106 207/131/106 208/132/106
f 209/137/107 210/145/107 211/113/107
f 212/137/108 213/113/108 214/112/108
f 215/132/103 216/111/103 217/113/103
f 218/146/1 6/6/2 5/5/2
f 218/146/1 5/5/109 219/147/1
f 220/148/16 2/2/1 1/1/1
f 220/148/16 1/1/1 221/75/16
f 222/149/110 218/146/1 219/147/1
f 222/149/111 219/147/1 223/150/111
f 224/151/112 222/149/5 223/150/5
f 224/151/6 223/150/5 225/152/6
f 226/153/113 224/151/6 225/152/6
f 226/153/113 225/152/6 227/154/113
f 228/17/114 20/16/10 19/19/10
f 228/17/114 19/19/10 229/155/114
f 230/20/115 16/16/9 15/15/9
f 230/20/115 15/15/8 231/88/115
f 232/22/116 228/17/114 229/155/114
f 232/22/12 229/155/114 233/156/12
f 234/24/13 232/22/12 233/156/12
f 234/24/13 233/156/12 235/157/13
f 236/26/2 234/24/13 235/157/13
f 236/26/109 235/157/14 237/158/109
f 238/13/7 239/129/32 240/78/32
f 238/13/7 240/78/32 14/14/7
f 241/63/34 230/20/115 231/88/115
f 241/63/34 231/88/115 242/87/34
f 243/117/84 244/63/84 245/87/84
f 243/117/84 245/87/84 246/120/84
f 247/159/97 248/56/97 249/55/97
f 247/159/96 249/55/96 250/115/96
f 251/138/102 252/112/102 253/134/102
f 254/143/104 255/113/104 256/145/104
f 257/160/31 34/33/19 33/32/19
f 257/160/31 33/32/19 258/161/31
f 259/162/19 30/29/17 29/28/17
f 259/162/19 29/28/18 260/68/19
f 261/163/21 259/162/19 260/68/19
f 261/163/21 260/68/19 262/69/21
f 263/164/22 261/163/21 262/69/21
f 263/164/117 262/69/21 264/70/117
f 265/165/118 263/164/22 264/70/22
f 265/165/118 264/70/22 266/92/118
f 69/44/119 48/43/26 47/46/26
f 69/44/119 47/46/26 70/67/119
f 267/47/120 44/43/25 43/42/25
f 267/47/120 43/42/25 268/71/120
f 269/49/121 267/47/120 268/71/120
f 269/49/27 268/71/120 270/72/27
f 271/51/29 269/49/27 270/72/27
f 271/51/122 270/72/27 272/73/122
f 273/53/123 271/51/28 272/73/28
f 273/53/17 272/73/29 274/74/17
f 275/166/33 276/167/118 277/80/118
f 275/166/33 277/80/118 278/79/33
f 45/44/25 279/66/36 280/89/36
f 45/44/25 280/89/36 46/45/25
f 281/121/86 282/66/86 283/65/86
f 281/121/86 283/65/86 284/168/86
f 285/169/92 286/166/92 287/79/92
f 285/169/93 287/79/92 288/128/93
f 289/139/100 290/132/100 291/142/100
f 292/135/100 293/111/100 294/144/100
