# Blender 4.0.1
# www.blender.org
mtllib legup.mtl
o Onett3
v 0.413831 0.748669 0.127217
v 0.413832 0.684595 0.266297
v 0.447221 0.656652 0.246436
v 0.447221 0.716620 0.116774
v 0.480611 0.684454 0.106331
v 0.480610 0.702226 -0.032695
v 0.447221 0.735354 -0.032692
v 0.447221 0.716620 0.116774
v 0.413831 0.576060 0.376665
v 0.447221 0.556279 0.349331
v 0.413831 0.436791 0.447518
v 0.447222 0.426222 0.415452
v 0.413831 0.301491 0.470091
v 0.447221 0.298725 0.436723
v 0.408373 -0.408962 0.447425
v 0.408372 -0.548212 0.376541
v 0.441341 -0.528462 0.349212
v 0.441341 -0.398382 0.415361
v 0.474309 -0.387802 0.383298
v 0.480611 -0.298122 0.403294
v 0.447221 -0.300892 0.436661
v 0.441341 -0.398382 0.415361
v 0.408372 -0.656412 0.266148
v 0.441341 -0.628492 0.246294
v 0.408372 -0.712202 0.127053
v 0.441341 -0.680132 0.116617
v 0.399806 -0.731672 -0.032858
v 0.432114 -0.698702 -0.032854
v 0.399806 -0.731672 -0.032858
v 0.399805 -0.711912 -0.187034
v 0.432114 -0.679862 -0.176591
v 0.432114 -0.698702 -0.032854
v 0.408372 -0.656172 -0.326114
v 0.441341 -0.628242 -0.306253
v 0.408372 -0.546862 -0.431120
v 0.441341 -0.527072 -0.403787
v 0.408372 -0.457182 -0.486097
v 0.441341 -0.446612 -0.454031
v 0.413831 -0.303552 -0.529909
v 0.447221 -0.300792 -0.496540
v 0.413832 0.436897 -0.507242
v 0.413832 0.576165 -0.436358
v 0.447222 0.556369 -0.409029
v 0.447221 0.426321 -0.475179
v 0.480611 0.415744 -0.443115
v 0.480611 0.296057 -0.463111
v 0.447221 0.298829 -0.496478
v 0.413831 0.684503 -0.325966
v 0.447221 0.656541 -0.306111
v 0.413831 0.748459 -0.186870
v 0.447221 0.716429 -0.176434
v 0.413831 0.768328 -0.032688
v 0.447221 0.735354 -0.032692
v -0.452611 0.748669 0.127217
v -0.452611 0.768328 -0.032688
v -0.486000 0.735354 -0.032691
v -0.486000 0.716620 0.116774
v -0.519390 0.684641 0.106331
v -0.519390 0.629412 0.226576
v -0.486000 0.656729 0.246436
v -0.519389 0.536582 0.321997
v -0.486000 0.556337 0.349331
v -0.519389 0.415652 0.383386
v -0.486000 0.426221 0.415452
v -0.519389 0.295960 0.403355
v -0.486000 0.298726 0.436723
v -0.447151 -0.408962 0.447425
v -0.452610 -0.303662 0.470028
v -0.486000 -0.300892 0.436661
v -0.480120 -0.398382 0.415361
v -0.513089 -0.387802 0.383298
v -0.513088 -0.508632 0.321883
v -0.480119 -0.528462 0.349212
v -0.513089 -0.601092 0.226440
v -0.480119 -0.628492 0.246294
v -0.513089 -0.648132 0.106181
v -0.480119 -0.680132 0.116617
v -0.503201 -0.665722 -0.032850
v -0.470893 -0.698702 -0.032854
v -0.503201 -0.665722 -0.032850
v -0.503201 -0.647892 -0.166148
v -0.470892 -0.679862 -0.176591
v -0.470893 -0.698702 -0.032854
v -0.513088 -0.600862 -0.286392
v -0.480120 -0.628242 -0.306253
v -0.513089 -0.507272 -0.376453
v -0.480120 -0.527072 -0.403787
v -0.513088 -0.436042 -0.421965
v -0.480120 -0.446612 -0.454031
v -0.519389 -0.298022 -0.463172
v -0.486000 -0.300792 -0.496540
v -0.452611 0.436898 -0.507242
v -0.452611 0.301602 -0.529845
v -0.486000 0.298829 -0.496478
v -0.486000 0.426321 -0.475179
v -0.519389 0.415743 -0.443115
v -0.519389 0.536668 -0.381699
v -0.486000 0.556435 -0.409029
v -0.519389 0.629307 -0.286257
v -0.486000 0.656620 -0.306111
v -0.519389 0.684469 -0.165998
v -0.486000 0.716429 -0.176434
v -0.519389 0.702379 -0.032695
v -0.486000 0.735354 -0.032691
v 0.480611 -0.298122 0.403294
v 0.480611 0.295960 0.403355
v 0.447221 0.298725 0.436723
v 0.447221 -0.300892 0.436661
v -0.519389 -0.298122 0.403294
v -0.486000 -0.300892 0.436661
v 0.480611 -0.298022 -0.463172
v -0.519390 0.296057 -0.463110
v 0.413831 0.748669 0.127217
v -0.452611 0.748669 0.127217
v -0.452611 0.684595 0.266297
v 0.413832 0.684595 0.266297
v -0.452610 0.576062 0.376665
v 0.413831 0.576060 0.376665
v -0.452611 0.436791 0.447518
v 0.413831 0.436791 0.447518
v 0.408373 -0.408962 0.447425
v -0.447151 -0.408962 0.447425
v -0.447151 -0.548212 0.376541
v 0.408372 -0.548212 0.376541
v -0.447151 -0.656402 0.266148
v 0.408372 -0.656412 0.266148
v -0.447151 -0.712202 0.127053
v 0.408372 -0.712202 0.127053
v -0.438585 -0.731672 -0.032858
v 0.399806 -0.731672 -0.032858
v 0.399806 -0.731672 -0.032858
v -0.438585 -0.731672 -0.032858
v -0.438584 -0.711912 -0.187034
v 0.399805 -0.711912 -0.187034
v -0.447151 -0.656172 -0.326114
v 0.408372 -0.656172 -0.326114
v -0.447151 -0.546862 -0.431120
v 0.408372 -0.546862 -0.431120
v -0.447151 -0.457182 -0.486096
v 0.408372 -0.457182 -0.486097
v 0.413832 0.436897 -0.507242
v -0.452611 0.436898 -0.507242
v -0.452611 0.576185 -0.436358
v 0.413832 0.576165 -0.436358
v -0.452611 0.684503 -0.325966
v 0.413831 0.684503 -0.325966
v -0.452610 0.748459 -0.186870
v 0.413831 0.748459 -0.186870
v -0.452611 0.768328 -0.032688
v 0.413831 0.768328 -0.032688
v 0.413831 0.768328 -0.032688
v -0.452611 0.768328 -0.032688
v 0.480611 -0.298122 0.403294
v 0.480611 -0.304392 -0.032805
v 0.480610 0.302096 -0.032741
v 0.480611 0.295960 0.403355
v 0.413831 0.301491 0.470091
v -0.452611 0.301491 0.470091
v -0.452610 -0.303662 0.470028
v 0.413832 -0.303662 0.470028
v -0.519389 0.295960 0.403355
v -0.519390 0.302316 -0.032741
v -0.519389 -0.304392 -0.032805
v -0.519389 -0.298122 0.403294
v 0.480611 0.296057 -0.463111
v 0.480611 -0.298022 -0.463172
v 0.413831 -0.303552 -0.529909
v -0.452611 -0.303552 -0.529909
v -0.452611 0.301602 -0.529845
v 0.413831 0.301602 -0.529845
v -0.519389 -0.298022 -0.463172
v -0.519390 0.296057 -0.463110
v 0.413832 -0.303662 0.470028
v -0.452610 -0.303662 0.470028
v 0.480611 0.629189 0.226576
v 0.480611 0.684454 0.106331
v 0.480611 0.536463 0.321997
v 0.480611 0.415651 0.383386
v 0.474309 -0.387802 0.383298
v 0.474310 -0.508632 0.321883
v 0.474309 -0.601092 0.226439
v 0.474310 -0.648132 0.106181
v 0.464422 -0.665722 -0.032850
v 0.464423 -0.647892 -0.166148
v 0.474309 -0.600862 -0.286393
v 0.474309 -0.507272 -0.376453
v 0.474310 -0.436042 -0.421965
v 0.480611 0.415744 -0.443115
v 0.480611 0.536536 -0.381699
v 0.480611 0.629075 -0.286257
v 0.480611 0.684279 -0.165998
v 0.480610 0.702226 -0.032695
v -0.519390 0.684641 0.106331
v -0.519390 0.629412 0.226576
v -0.519389 0.536582 0.321997
v -0.519389 0.415652 0.383386
v -0.519389 -0.298122 0.403294
v -0.513089 -0.387802 0.383298
v -0.513088 -0.508632 0.321883
v -0.513089 -0.601092 0.226440
v -0.513089 -0.648132 0.106181
v -0.503201 -0.665722 -0.032850
v -0.503201 -0.647892 -0.166148
v -0.513088 -0.600862 -0.286392
v -0.513089 -0.507272 -0.376453
v -0.513088 -0.436042 -0.421965
v -0.519389 0.415743 -0.443115
v -0.519389 0.536668 -0.381699
v -0.519389 0.629307 -0.286257
v -0.519389 0.684469 -0.165998
v -0.519389 0.702379 -0.032695
v 0.447221 0.656652 0.246436
v 0.480611 0.629189 0.226576
v 0.447221 0.735354 -0.032692
v 0.413831 0.768328 -0.032688
v 0.447221 0.556279 0.349331
v 0.480611 0.536463 0.321997
v 0.447222 0.426222 0.415452
v 0.480611 0.415651 0.383386
v 0.441341 -0.528462 0.349212
v 0.474310 -0.508632 0.321883
v 0.447221 -0.300892 0.436661
v 0.413832 -0.303662 0.470028
v 0.441341 -0.628492 0.246294
v 0.474309 -0.601092 0.226439
v 0.441341 -0.680132 0.116617
v 0.474310 -0.648132 0.106181
v 0.432114 -0.698702 -0.032854
v 0.464422 -0.665722 -0.032850
v 0.464423 -0.647892 -0.166148
v 0.464422 -0.665722 -0.032850
v 0.474309 -0.600862 -0.286393
v 0.474309 -0.507272 -0.376453
v 0.474310 -0.436042 -0.421965
v 0.480611 0.536536 -0.381699
v 0.413831 0.301602 -0.529845
v 0.480611 0.629075 -0.286257
v 0.480611 0.684279 -0.165998
v 0.480610 0.702226 -0.032695
v 0.413832 -0.303662 0.470028
v -0.519389 0.702379 -0.032695
v -0.452611 0.684595 0.266297
v -0.452610 0.576062 0.376665
v -0.452611 0.436791 0.447518
v -0.452611 0.301491 0.470091
v -0.519389 -0.298122 0.403294
v -0.447151 -0.548212 0.376541
v -0.447151 -0.656402 0.266148
v -0.447151 -0.712202 0.127053
v -0.438585 -0.731672 -0.032858
v -0.438584 -0.711912 -0.187034
v -0.438585 -0.731672 -0.032858
v -0.447151 -0.656172 -0.326114
v -0.447151 -0.546862 -0.431120
v -0.447151 -0.457182 -0.486096
v -0.452611 -0.303552 -0.529909
v -0.452611 0.576185 -0.436358
v -0.452611 0.684503 -0.325966
v -0.452610 0.748459 -0.186870
v -0.452611 0.768328 -0.032688
v -0.452610 -0.303662 0.470028
vn 0.7092 0.6383 0.2994
vn 0.7005 0.7084 0.0866
vn 0.7079 0.5034 0.4955
vn 0.7075 0.3223 0.6289
vn 0.7061 0.1177 0.6983
vn 0.7093 -0.3152 0.6305
vn 0.7093 -0.3153 0.6305
vn 0.7108 -0.1501 0.6871
vn 0.7108 -0.1501 0.6872
vn 0.7145 -0.5025 0.4868
vn 0.7098 -0.6546 0.2603
vn 0.7098 -0.6546 0.2602
vn 0.7084 -0.7005 0.0866
vn 0.7079 -0.7000 -0.0944
vn 0.7098 -0.6546 -0.2602
vn 0.7098 -0.6546 -0.2603
vn 0.7145 -0.5025 -0.4868
vn 0.7144 -0.5026 -0.4868
vn 0.7093 -0.3152 -0.6305
vn 0.7093 -0.3153 -0.6305
vn 0.7078 -0.1416 -0.6921
vn 0.7075 0.3223 -0.6289
vn 0.7061 0.1177 -0.6983
vn 0.7079 0.5034 -0.4955
vn 0.7109 0.6398 -0.2922
vn 0.7108 0.6397 -0.2923
vn 0.7108 0.6398 -0.2923
vn 0.7000 0.7079 -0.0944
vn 0.7108 0.6398 -0.2922
vn -0.7004 0.7084 0.0866
vn -0.7005 0.7084 0.0866
vn -0.7056 0.6429 0.2979
vn -0.7079 0.5034 0.4955
vn -0.7075 0.3223 0.6289
vn -0.7061 0.1177 0.6983
vn -0.7070 -0.1493 0.6913
vn -0.7093 -0.3152 0.6305
vn -0.7106 -0.5053 0.4895
vn -0.7093 -0.3153 0.6305
vn -0.7106 -0.5053 0.4896
vn -0.7098 -0.6546 0.2603
vn -0.7098 -0.6546 0.2602
vn -0.7106 -0.5054 0.4895
vn -0.7084 -0.7005 0.0866
vn -0.7079 -0.7000 -0.0944
vn -0.7098 -0.6546 -0.2603
vn -0.7098 -0.6546 -0.2602
vn -0.7106 -0.5053 -0.4895
vn -0.7104 -0.5054 -0.4897
vn -0.7093 -0.3152 -0.6305
vn -0.7108 -0.1501 -0.6872
vn -0.7093 -0.3153 -0.6305
vn -0.7109 -0.1501 -0.6871
vn -0.7061 0.1177 -0.6983
vn -0.7075 0.3223 -0.6289
vn -0.7079 0.5034 -0.4955
vn -0.7056 0.6429 -0.2979
vn -0.7056 0.6430 -0.2979
vn -0.7056 0.6429 -0.2980
vn -0.7001 0.7078 -0.0943
vn 0.7109 -0.1501 0.6871
vn 0.7069 -0.0001 0.7073
vn -0.7069 -0.0001 0.7073
vn 0.7069 0.0001 -0.7073
vn 0.7078 -0.1415 -0.6921
vn -0.7069 0.0001 -0.7073
vn -0.0000 0.9080 0.4189
vn -0.0000 0.9081 0.4187
vn -0.0000 0.9082 0.4186
vn -0.0000 0.7149 0.6992
vn -0.0000 0.4566 0.8897
vn -0.0000 -0.4566 0.8897
vn -0.0002 -0.4566 0.8897
vn -0.0000 -0.7149 0.6993
vn -0.0000 -0.7150 0.6992
vn -0.0000 -0.7149 0.6992
vn -0.0000 -0.9290 0.3701
vn -0.0000 -0.9290 0.3700
vn -0.0000 -0.9930 0.1182
vn -0.0000 -0.9920 -0.1259
vn -0.0000 -0.9920 -0.1260
vn -0.0000 -0.9290 -0.3701
vn -0.0002 -0.9290 -0.3701
vn -0.0000 -0.7149 -0.6992
vn -0.0000 -0.4566 -0.8897
vn -0.0000 0.4566 -0.8897
vn -0.0000 0.4566 -0.8896
vn -0.0000 0.7150 -0.6992
vn -0.0000 0.7149 -0.6992
vn -0.0000 0.9082 -0.4186
vn -0.0001 0.9082 -0.4186
vn -0.0000 0.9920 -0.1260
vn 1.0000 -0.0000 -0.0000
vn -0.0000 -0.0001 1.0000
vn -1.0000 -0.0000 -0.0000
vn -0.0000 0.0001 -1.0000
vn -0.0000 0.4567 0.8896
vn -0.0000 -0.0000 1.0000
vn -0.0000 -0.0000 -1.0000
vn 0.9985 -0.0550 -0.0000
vn 0.9998 -0.0079 0.0158
vn 0.9999 -0.0078 0.0079
vn 0.9998 -0.0079 0.0157
vn 0.9998 -0.0157 0.0079
vn 0.9999 -0.0158 -0.0000
vn 0.9998 -0.0157 -0.0079
vn 0.9999 -0.0079 -0.0079
vn 0.9998 -0.0079 -0.0157
vn 0.9998 -0.0079 -0.0158
vn -0.9985 -0.0550 -0.0000
vn -0.9999 -0.0079 0.0079
vn -0.9998 -0.0157 0.0079
vn -0.9999 -0.0158 -0.0000
vn -0.9999 -0.0157 -0.0000
vn -0.9998 -0.0158 -0.0079
vn -0.9998 -0.0157 -0.0079
vn -0.9999 -0.0079 -0.0079
vn -0.9998 -0.0079 -0.0157
vn -0.9998 -0.0079 -0.0158
vn 0.7056 0.6429 0.2980
vn 0.7056 0.6429 0.2979
vn 0.7071 -0.0000 0.7071
vn 0.7109 -0.1501 0.6872
vn 0.7070 -0.1493 0.6913
vn 0.7106 -0.5053 0.4895
vn 0.7106 -0.5053 0.4896
vn 0.7106 -0.5054 0.4895
vn 0.7106 -0.5053 -0.4895
vn 0.7071 -0.0000 -0.7071
vn 0.7061 0.1177 -0.6982
vn 0.7056 0.6429 -0.2979
vn -0.7000 0.7079 -0.0944
vn -0.7092 0.6383 0.2994
vn -0.7071 -0.0000 0.7071
vn -0.7145 -0.5025 0.4868
vn -0.7097 -0.6547 0.2602
vn -0.7106 -0.5053 -0.4896
vn -0.7145 -0.5025 -0.4868
vn -0.7070 -0.1493 -0.6913
vn -0.7071 -0.0000 -0.7071
vn -0.7108 0.6398 -0.2923
vn -0.7108 0.6398 -0.2922
vt 0.992186 0.656688
vt 0.992186 0.652256
vt 0.994044 0.650554
vt 0.994044 0.654685
vt 0.746518 0.652683
vt 0.746518 0.654003
vt 0.744744 0.656109
vt 0.744744 0.654685
vt 0.992186 0.645354
vt 0.994044 0.644118
vt 0.992186 0.636572
vt 0.994044 0.635959
vt 0.992186 0.629960
vt 0.994044 0.629960
vt 0.992182 0.605160
vt 0.992182 0.612993
vt 0.994045 0.612993
vt 0.994045 0.605160
vt 0.746505 0.604761
vt 0.746505 0.596130
vt 0.744743 0.596130
vt 0.744743 0.604761
vt 0.992182 0.622574
vt 0.994045 0.622573
vt 0.992182 0.633198
vt 0.994045 0.633198
vt 0.992182 0.642542
vt 0.994045 0.642531
vt 0.809207 0.608439
vt 0.809207 0.606445
vt 0.807330 0.606445
vt 0.807321 0.608443
vt 0.809207 0.604504
vt 0.807325 0.604504
vt 0.809207 0.602225
vt 0.807326 0.602225
vt 0.809207 0.599598
vt 0.807326 0.599598
vt 0.809200 0.596125
vt 0.807326 0.596125
vt 0.809200 0.636841
vt 0.809200 0.645456
vt 0.807326 0.644204
vt 0.807326 0.636129
vt 0.805452 0.635416
vt 0.805452 0.629960
vt 0.807326 0.629960
vt 0.809200 0.652359
vt 0.807326 0.650640
vt 0.809200 0.656791
vt 0.807326 0.654771
vt 0.809200 0.658318
vt 0.807326 0.656195
vt 0.933742 0.656521
vt 0.933742 0.658048
vt 0.931843 0.655929
vt 0.931843 0.654505
vt 0.929943 0.652489
vt 0.929943 0.648658
vt 0.931843 0.650373
vt 0.929943 0.642689
vt 0.931843 0.643938
vt 0.929943 0.635153
vt 0.931843 0.635862
vt 0.929943 0.629960
vt 0.931843 0.629960
vt 0.933740 0.605160
vt 0.933740 0.596127
vt 0.931843 0.596123
vt 0.931843 0.605160
vt 0.929945 0.605160
vt 0.929945 0.612993
vt 0.931843 0.612993
vt 0.929945 0.622573
vt 0.931843 0.622573
vt 0.929945 0.633198
vt 0.931843 0.633198
vt 0.929945 0.642835
vt 0.931843 0.642825
vt 0.871306 0.608351
vt 0.871306 0.606445
vt 0.869278 0.606445
vt 0.869278 0.608354
vt 0.871306 0.604504
vt 0.869278 0.604504
vt 0.871306 0.602225
vt 0.869278 0.602225
vt 0.871309 0.599597
vt 0.869296 0.599598
vt 0.871309 0.596125
vt 0.869294 0.596125
vt 0.867280 0.636933
vt 0.867280 0.629960
vt 0.869294 0.629960
vt 0.869294 0.636324
vt 0.871309 0.635715
vt 0.871309 0.643251
vt 0.869294 0.644483
vt 0.871309 0.649219
vt 0.869294 0.650918
vt 0.871309 0.653051
vt 0.869294 0.655050
vt 0.871309 0.654371
vt 0.869294 0.656474
vt 0.746518 0.596125
vt 0.746518 0.629960
vt 0.744744 0.629960
vt 0.744744 0.596125
vt 0.929943 0.596125
vt 0.931843 0.596125
vt 0.805520 0.596117
vt 0.871309 0.629960
vt 0.933742 0.652089
vt 0.933742 0.645186
vt 0.933742 0.636572
vt 0.933740 0.612994
vt 0.933740 0.622574
vt 0.933740 0.633198
vt 0.933740 0.642815
vt 0.867192 0.608358
vt 0.867192 0.606445
vt 0.867192 0.604504
vt 0.867192 0.602225
vt 0.867280 0.599626
vt 0.867280 0.645715
vt 0.867280 0.652618
vt 0.867280 0.657049
vt 0.867280 0.658576
vt 0.992186 0.658215
vt 0.746468 0.596107
vt 0.775827 0.596107
vt 0.775827 0.629942
vt 0.746468 0.629942
vt 0.933742 0.629960
vt 0.933742 0.596125
vt 0.992186 0.596125
vt 0.929919 0.629960
vt 0.900200 0.629960
vt 0.900200 0.596125
vt 0.929919 0.596125
vt 0.805449 0.629942
vt 0.805449 0.596107
vt 0.867280 0.596125
vt 0.809200 0.629960
vt 0.871349 0.596125
vt 0.871349 0.629960
vt 0.992182 0.596125
vt 0.758196 0.651237
vt 0.766374 0.655409
vt 0.751705 0.644740
vt 0.747530 0.636599
vt 0.748156 0.605090
vt 0.752138 0.608294
vt 0.758328 0.608398
vt 0.766128 0.608398
vt 0.775833 0.608398
vt 0.784984 0.608398
vt 0.793238 0.608398
vt 0.799789 0.608238
vt 0.804004 0.605173
vt 0.803740 0.636599
vt 0.799564 0.644740
vt 0.793073 0.651237
vt 0.784895 0.655409
vt 0.775829 0.656846
vt 0.909738 0.655409
vt 0.917988 0.651203
vt 0.924536 0.644740
vt 0.928748 0.636473
vt 0.928493 0.604761
vt 0.924428 0.607422
vt 0.918111 0.608398
vt 0.910151 0.608398
vt 0.900192 0.608398
vt 0.891182 0.608398
vt 0.883054 0.608398
vt 0.876604 0.607422
vt 0.872454 0.605280
vt 0.872771 0.636473
vt 0.876258 0.644740
vt 0.882806 0.651237
vt 0.891055 0.655409
vt 0.900200 0.656846
vt 0.744744 0.650554
vt 0.746518 0.648851
vt 0.994044 0.656109
vt 0.744744 0.644118
vt 0.746518 0.642883
vt 0.744744 0.635959
vt 0.746518 0.635347
vt 0.744743 0.612594
vt 0.746505 0.612594
vt 0.994044 0.596125
vt 0.744743 0.622174
vt 0.746505 0.622174
vt 0.744743 0.632799
vt 0.746505 0.632798
vt 0.744743 0.642132
vt 0.746505 0.642121
vt 0.805520 0.606445
vt 0.805452 0.608446
vt 0.805520 0.604504
vt 0.805520 0.602225
vt 0.805520 0.599598
vt 0.805452 0.642952
vt 0.805452 0.648920
vt 0.805452 0.652752
vt 0.805452 0.654073
vt 0.929943 0.653810
vt 0.929945 0.596123
s 0
usemtl Handle1Mtl.003
f 1/1/1 2/2/1 3/3/1
f 1/1/1 3/3/1 4/4/1
f 5/5/2 6/6/2 7/7/2
f 5/5/2 7/7/2 8/8/1
f 2/2/1 9/9/3 10/10/3
f 2/2/1 10/10/3 3/3/1
f 9/9/3 11/11/4 12/12/4
f 9/9/3 12/12/4 10/10/3
f 11/11/4 13/13/5 14/14/5
f 11/11/4 14/14/5 12/12/4
f 15/15/6 16/16/6 17/17/6
f 15/15/7 17/17/7 18/18/7
f 19/19/8 20/20/9 21/21/9
f 19/19/9 21/21/9 22/22/6
f 16/16/6 23/23/10 24/24/10
f 16/16/7 24/24/10 17/17/7
f 23/23/10 25/25/11 26/26/11
f 23/23/10 26/26/11 24/24/10
f 25/25/12 27/27/13 28/28/13
f 25/25/12 28/28/13 26/26/12
f 29/29/13 30/30/14 31/31/14
f 29/29/13 31/31/14 32/32/13
f 30/30/14 33/33/15 34/34/15
f 30/30/14 34/34/16 31/31/14
f 33/33/15 35/35/17 36/36/17
f 33/33/15 36/36/18 34/34/15
f 35/35/17 37/37/19 38/38/19
f 35/35/17 38/38/19 36/36/17
f 37/37/20 39/39/21 40/40/21
f 37/37/20 40/40/21 38/38/20
f 41/41/22 42/42/22 43/43/22
f 41/41/22 43/43/22 44/44/22
f 45/45/23 46/46/23 47/47/23
f 45/45/23 47/47/23 44/44/22
f 42/42/22 48/48/24 49/49/24
f 42/42/22 49/49/24 43/43/22
f 48/48/24 50/50/25 51/51/25
f 48/48/24 51/51/26 49/49/24
f 50/50/27 52/52/28 53/53/2
f 50/50/25 53/53/2 51/51/29
f 54/54/30 55/55/30 56/56/30
f 54/54/31 56/56/31 57/57/31
f 58/58/32 59/59/32 60/60/32
f 58/58/32 60/60/32 57/57/31
f 59/59/32 61/61/33 62/62/33
f 59/59/32 62/62/33 60/60/32
f 61/61/33 63/63/34 64/64/34
f 61/61/33 64/64/34 62/62/33
f 63/63/34 65/65/35 66/66/35
f 63/63/34 66/66/35 64/64/34
f 67/67/36 68/68/36 69/69/36
f 67/67/36 69/69/36 70/70/36
f 71/71/37 72/72/37 73/73/37
f 71/71/37 73/73/37 70/70/36
f 72/72/37 74/74/38 75/75/38
f 72/72/39 75/75/38 73/73/39
f 74/74/40 76/76/41 77/77/41
f 74/74/38 77/77/42 75/75/43
f 76/76/42 78/78/44 79/79/44
f 76/76/41 79/79/44 77/77/41
f 80/80/44 81/81/45 82/82/45
f 80/80/44 82/82/45 83/83/44
f 81/81/45 84/84/46 85/85/46
f 81/81/45 85/85/47 82/82/45
f 84/84/46 86/86/48 87/87/48
f 84/84/46 87/87/49 85/85/46
f 86/86/48 88/88/50 89/89/50
f 86/86/48 89/89/50 87/87/48
f 88/88/50 90/90/51 91/91/51
f 88/88/52 91/91/53 89/89/52
f 92/92/54 93/93/54 94/94/54
f 92/92/54 94/94/54 95/95/54
f 96/96/55 97/97/55 98/98/55
f 96/96/55 98/98/55 95/95/54
f 97/97/55 99/99/56 100/100/56
f 97/97/55 100/100/56 98/98/55
f 99/99/56 101/101/57 102/102/57
f 99/99/56 102/102/58 100/100/56
f 101/101/59 103/103/60 104/104/31
f 101/101/57 104/104/31 102/102/57
f 105/105/61 106/106/62 107/107/5
f 105/105/9 107/107/5 108/108/9
f 65/65/35 109/109/63 110/110/36
f 65/65/35 110/110/36 66/66/35
f 46/46/23 111/111/64 40/40/21
f 46/46/23 40/40/65 47/47/23
f 90/90/51 112/112/66 94/94/54
f 90/90/51 94/94/54 91/91/51
f 113/1/67 114/54/67 115/113/67
f 113/1/68 115/113/68 116/2/68
f 116/2/69 115/113/69 117/114/70
f 116/2/69 117/114/70 118/9/70
f 118/9/70 117/114/70 119/115/71
f 118/9/70 119/115/71 120/11/71
f 121/15/72 122/67/72 123/116/72
f 121/15/72 123/116/72 124/16/72
f 124/16/72 123/116/73 125/117/74
f 124/16/72 125/117/75 126/23/75
f 126/23/76 125/117/76 127/118/77
f 126/23/76 127/118/78 128/25/78
f 128/25/77 127/118/77 129/119/79
f 128/25/78 129/119/79 130/27/79
f 131/29/79 132/120/79 133/121/80
f 131/29/79 133/121/80 134/30/80
f 134/30/81 133/121/81 135/122/82
f 134/30/81 135/122/82 136/33/82
f 136/33/82 135/122/83 137/123/84
f 136/33/82 137/123/84 138/35/84
f 138/35/84 137/123/84 139/124/85
f 138/35/84 139/124/85 140/37/85
f 141/41/86 142/92/86 143/125/86
f 141/41/86 143/125/86 144/42/86
f 144/42/87 143/125/87 145/126/88
f 144/42/87 145/126/88 146/48/88
f 146/48/89 145/126/89 147/127/90
f 146/48/89 147/127/90 148/50/90
f 148/50/90 147/127/91 149/128/92
f 148/50/90 149/128/92 150/52/92
f 151/129/92 152/55/92 114/54/69
f 151/129/92 114/54/69 113/1/69
f 153/130/93 154/131/93 155/132/93
f 153/130/93 155/132/93 156/133/93
f 157/13/94 158/134/94 159/135/94
f 157/13/94 159/135/94 160/136/94
f 161/137/95 162/138/95 163/139/95
f 161/137/95 163/139/95 164/140/95
f 165/141/93 155/132/93 154/131/93
f 165/141/93 154/131/93 166/142/93
f 167/39/96 168/143/96 169/93/96
f 167/39/96 169/93/96 170/144/96
f 171/145/95 163/139/95 162/138/95
f 171/145/95 162/138/95 172/146/95
f 120/11/97 119/115/97 158/134/98
f 120/11/97 158/134/98 157/13/98
f 173/147/98 174/68/98 122/67/72
f 173/147/98 122/67/72 121/15/72
f 140/37/85 139/124/85 168/143/99
f 140/37/85 168/143/99 167/39/99
f 170/144/99 169/93/99 142/92/86
f 170/144/99 142/92/86 141/41/86
f 175/148/93 155/132/93 176/149/93
f 177/150/93 155/132/93 175/148/93
f 178/151/93 155/132/93 177/150/93
f 156/133/93 155/132/93 178/151/93
f 179/152/100 154/131/93 153/130/93
f 180/153/101 154/131/93 179/152/100
f 181/154/102 154/131/93 180/153/103
f 182/155/104 154/131/93 181/154/102
f 183/156/105 154/131/93 182/155/104
f 184/157/105 154/131/93 183/156/105
f 185/158/106 154/131/93 184/157/105
f 186/159/107 154/131/93 185/158/106
f 187/160/108 154/131/93 186/159/107
f 166/142/93 154/131/93 187/160/109
f 188/161/93 155/132/93 165/141/93
f 189/162/93 155/132/93 188/161/93
f 190/163/93 155/132/93 189/162/93
f 191/164/93 155/132/93 190/163/93
f 192/165/93 155/132/93 191/164/93
f 176/149/93 155/132/93 192/165/93
f 193/166/95 162/138/95 194/167/95
f 194/167/95 162/138/95 195/168/95
f 195/168/95 162/138/95 196/169/95
f 196/169/95 162/138/95 161/137/95
f 197/109/95 163/139/95 198/170/110
f 199/171/111 163/139/95 200/172/111
f 200/172/111 163/139/95 201/173/112
f 201/173/112 163/139/95 202/174/113
f 202/174/113 163/139/95 203/175/113
f 203/175/114 163/139/95 204/176/115
f 204/176/116 163/139/95 205/177/117
f 205/177/117 163/139/95 206/178/118
f 206/178/119 163/139/95 171/145/95
f 172/146/95 162/138/95 207/179/95
f 207/179/95 162/138/95 208/180/95
f 208/180/95 162/138/95 209/181/95
f 209/181/95 162/138/95 210/182/95
f 210/182/95 162/138/95 211/183/95
f 211/183/95 162/138/95 193/166/95
f 212/184/1 213/185/120 5/5/2
f 212/184/1 5/5/2 8/8/1
f 214/186/2 215/129/28 1/1/1
f 214/186/2 1/1/1 4/4/1
f 216/187/3 217/188/3 213/185/121
f 216/187/3 213/185/121 212/184/1
f 218/189/4 219/190/4 217/188/3
f 218/189/4 217/188/3 216/187/3
f 107/107/5 106/106/122 219/190/4
f 107/107/5 219/190/4 218/189/4
f 220/191/6 221/192/6 19/19/9
f 220/191/7 19/19/61 22/22/7
f 222/193/123 223/147/124 15/15/7
f 222/193/9 15/15/6 18/18/6
f 224/194/10 225/195/125 221/192/6
f 224/194/10 221/192/7 220/191/7
f 226/196/11 227/197/11 225/195/126
f 226/196/12 225/195/127 224/194/10
f 228/198/13 229/199/13 227/197/12
f 228/198/13 227/197/11 226/196/11
f 31/31/14 230/200/14 231/201/13
f 31/31/14 231/201/13 32/32/13
f 34/34/16 232/202/16 230/200/14
f 34/34/15 230/200/14 31/31/14
f 36/36/17 233/203/128 232/202/15
f 36/36/17 232/202/16 34/34/16
f 38/38/19 234/204/19 233/203/128
f 38/38/19 233/203/128 36/36/17
f 40/40/21 111/111/129 234/204/19
f 40/40/21 234/204/20 38/38/20
f 43/43/22 235/205/22 45/45/130
f 43/43/22 45/45/23 44/44/22
f 47/47/23 236/144/23 41/41/22
f 47/47/23 41/41/22 44/44/22
f 49/49/24 237/206/24 235/205/22
f 49/49/24 235/205/22 43/43/22
f 51/51/29 238/207/131 237/206/24
f 51/51/29 237/206/24 49/49/24
f 53/53/2 239/208/2 238/207/131
f 53/53/2 238/207/131 51/51/29
f 14/14/5 13/13/5 240/136/124
f 14/14/5 240/136/124 222/193/9
f 40/40/21 39/39/65 236/144/23
f 40/40/65 236/144/23 47/47/23
f 56/56/31 241/209/132 58/58/32
f 56/56/31 58/58/32 57/57/31
f 60/60/32 242/113/133 54/54/31
f 60/60/32 54/54/31 57/57/31
f 62/62/33 243/114/33 242/113/133
f 62/62/33 242/113/133 60/60/32
f 64/64/34 244/115/34 243/114/33
f 64/64/34 243/114/33 62/62/33
f 66/66/35 245/134/35 244/115/34
f 66/66/35 244/115/34 64/64/34
f 69/69/36 246/210/134 71/71/37
f 69/69/36 71/71/37 70/70/36
f 73/73/37 247/116/37 67/67/36
f 73/73/37 67/67/36 70/70/36
f 75/75/38 248/117/135 247/116/37
f 75/75/38 247/116/39 73/73/39
f 77/77/41 249/118/41 248/117/135
f 77/77/136 248/117/135 75/75/40
f 79/79/44 250/119/44 249/118/42
f 79/79/44 249/118/41 77/77/41
f 82/82/45 251/121/45 252/120/44
f 82/82/45 252/120/44 83/83/44
f 85/85/47 253/122/47 251/121/45
f 85/85/46 251/121/45 82/82/45
f 87/87/137 254/123/138 253/122/47
f 87/87/48 253/122/47 85/85/46
f 89/89/52 255/124/52 254/123/138
f 89/89/50 254/123/138 87/87/48
f 91/91/51 256/143/139 255/124/52
f 91/91/53 255/124/52 89/89/52
f 94/94/54 112/112/140 96/96/55
f 94/94/54 96/96/55 95/95/54
f 98/98/55 257/125/55 92/92/54
f 98/98/55 92/92/54 95/95/54
f 100/100/56 258/126/56 257/125/55
f 100/100/56 257/125/55 98/98/55
f 102/102/57 259/127/141 258/126/56
f 102/102/57 258/126/56 100/100/56
f 104/104/31 260/128/31 259/127/141
f 104/104/31 259/127/142 102/102/57
f 110/110/36 261/135/36 245/134/35
f 110/110/36 245/134/35 66/66/35
f 94/94/54 93/93/54 256/143/139
f 94/94/54 256/143/139 91/91/53
f 163/139/95 199/171/111 198/170/110
